<svg width="33" height="33" viewBox="0 0 33 33" fill="none" xmlns="http://www.w3.org/2000/svg">
<path d="M5.5 5.5H8.06345C8.8134 5.5 9.18837 5.5 9.45964 5.71179C9.7309 5.92359 9.82184 6.28737 10.0037 7.01493L10.333 8.33211C10.6085 9.43416 10.7463 9.98518 11.0975 10.3625C11.2417 10.5175 11.4095 10.6485 11.5948 10.7508C12.0461 11 12.614 11 13.75 11V11" stroke="#222222" stroke-width="2" stroke-linecap="round"/>
<path d="M24.75 23.375H10.3825C9.71265 23.375 9.37773 23.375 9.15085 23.2486C8.89152 23.1042 8.70976 22.852 8.65475 22.5603C8.60662 22.3051 8.71253 21.9874 8.92435 21.3519V21.3519C9.15893 20.6482 9.27621 20.2964 9.48302 20.0283C9.72017 19.7209 10.0417 19.4892 10.4083 19.3614C10.728 19.25 11.0989 19.25 11.8406 19.25H19.25" stroke="#222222" stroke-width="2" stroke-linecap="round" stroke-linejoin="round"/>
<path d="M20.9029 19.25H14.3885C12.7702 19.25 11.961 19.25 11.4015 18.776C10.842 18.3021 10.709 17.5039 10.4429 15.9076L10.2072 14.4932C9.93694 12.8716 9.80181 12.0609 10.2512 11.5304C10.7005 11 11.5225 11 13.1664 11H24.2639C25.7143 11 26.4395 11 26.7326 11.4743C27.0257 11.9485 26.7014 12.5972 26.0528 13.8944L24.4806 17.0389C23.9427 18.1147 23.6737 18.6526 23.1904 18.9513C22.7071 19.25 22.1057 19.25 20.9029 19.25Z" stroke="#222222" stroke-width="2" stroke-linecap="round"/>
<circle cx="23.375" cy="27.5" r="1.375" fill="#222222"/>
<circle cx="12.375" cy="27.5" r="1.375" fill="#222222"/>
</svg>
