<svg width="34" height="34" viewBox="0 0 34 34" fill="none" xmlns="http://www.w3.org/2000/svg">
<path d="M7.08325 18.0761C7.08325 16.1526 7.08325 15.1909 7.47207 14.3455C7.86089 13.5001 8.5911 12.8742 10.0515 11.6224L11.4682 10.4081C14.1079 8.14555 15.4277 7.01425 16.9999 7.01425C18.5721 7.01425 19.8919 8.14555 22.5316 10.4081L23.9483 11.6224C25.4087 12.8742 26.1389 13.5001 26.5278 14.3455C26.9166 15.1909 26.9166 16.1526 26.9166 18.0761V24.0833C26.9166 26.7546 26.9166 28.0903 26.0867 28.9201C25.2569 29.75 23.9212 29.75 21.2499 29.75H12.7499C10.0786 29.75 8.74298 29.75 7.91312 28.9201C7.08325 28.0903 7.08325 26.7546 7.08325 24.0833V18.0761Z" stroke="#33363F" stroke-width="2"/>
<path d="M20.5416 29.75V22.25C20.5416 21.6977 20.0939 21.25 19.5416 21.25H14.4583C13.906 21.25 13.4583 21.6977 13.4583 22.25V29.75" stroke="#33363F" stroke-width="2" stroke-linecap="round" stroke-linejoin="round"/>
</svg>
