<svg width="28" height="28" viewBox="0 0 28 28" fill="none" xmlns="http://www.w3.org/2000/svg">
<path d="M23.3333 11.6667H4.66667C4.02233 11.6667 3.5 11.1443 3.5 10.5C3.5 9.85567 4.02233 9.33333 4.66667 9.33333H23.3333C23.9777 9.33333 24.5 9.85567 24.5 10.5C24.5 11.1443 23.9777 11.6667 23.3333 11.6667Z" fill="#222222"/>
<path fill-rule="evenodd" clip-rule="evenodd" d="M7.19776 14.6125L7.96907 21.5542C8.08161 22.5671 8.93774 23.3333 9.95683 23.3333H18.0433C19.0624 23.3333 19.9186 22.5671 20.0311 21.5542L20.8024 14.6125C20.9149 13.5996 21.7711 12.8333 22.7902 12.8333H5.21C6.22909 12.8333 7.08522 13.5996 7.19776 14.6125ZM12.6667 16.3333C12.6667 15.781 12.219 15.3333 11.6667 15.3333C11.1145 15.3333 10.6667 15.781 10.6667 16.3333L10.6667 19.8333C10.6667 20.3856 11.1145 20.8333 11.6667 20.8333C12.219 20.8333 12.6667 20.3856 12.6667 19.8333L12.6667 16.3333ZM17.3334 16.3333C17.3334 15.781 16.8857 15.3333 16.3334 15.3333C15.7811 15.3333 15.3334 15.781 15.3334 16.3333L15.3334 19.8333C15.3334 20.3856 15.7811 20.8333 16.3334 20.8333C16.8857 20.8333 17.3334 20.3856 17.3334 19.8333L17.3334 16.3333Z" fill="#222222"/>
<path d="M9.33333 5.83333L7 10.5M18.6667 5.83333L21 10.5" stroke="#222222" stroke-width="2" stroke-linecap="round"/>
</svg>
