<?xml version="1.0" encoding="UTF-8"?>
<svg id="Capa_2" data-name="Capa 2" xmlns="http://www.w3.org/2000/svg" viewBox="0 0 1215 1215">
  <defs>
    <style>
      .cls-1 {
        letter-spacing: -.15em;
      }

      .cls-2 {
        stroke-width: 21px;
      }

      .cls-2, .cls-3 {
        stroke: #f5d35d;
      }

      .cls-2, .cls-3, .cls-4, .cls-5, .cls-6 {
        stroke-miterlimit: 10;
      }

      .cls-2, .cls-7 {
        fill: #f5d35d;
      }

      .cls-8 {
        letter-spacing: -.03em;
      }

      .cls-9 {
        font-family: Rockwell, Rockwell;
      }

      .cls-3 {
        fill: #084d92;
        stroke-width: 22px;
      }

      .cls-10 {
        letter-spacing: -.06em;
      }

      .cls-4 {
        fill: none;
        stroke-width: 31px;
      }

      .cls-4, .cls-5, .cls-6 {
        stroke: #084d92;
      }

      .cls-5 {
        font-size: 122.1px;
        stroke-width: 3px;
      }

      .cls-5, .cls-6 {
        fill: #fff;
      }

      .cls-6 {
        stroke-width: 28px;
      }

      .cls-11, .cls-12 {
        font-family: RobotoSlab-Bold, 'Roboto Slab';
        font-weight: 700;
      }

      .cls-11, .cls-13 {
        letter-spacing: -.03em;
      }
    </style>
  </defs>
  <g id="Capa_1-2" data-name="Capa 1">
    <circle class="cls-2" cx="607.5" cy="607.5" r="597"/>
    <circle class="cls-6" cx="607" cy="607" r="572.5"/>
    <path class="cls-4" d="m267.94,929.37V267.82h105.53v98.56h90.88v-98.56h110.09v100.32h92.23v-100.32h108.3v101.72h86.85v-101.72h104.25v661.54s-103.41,120.96-328.53,127.68c-225.12,6.72-369.6-127.68-369.6-127.68Z"/>
    <path class="cls-3" d="m252.67,908.08V246.53h105.53v98.56h90.88v-98.56h110.09v100.32h92.23v-100.32h108.3v101.72h86.85v-101.72h104.25v661.54s-103.41,120.96-328.53,127.68c-225.12,6.72-369.6-127.68-369.6-127.68Z"/>
    <g>
      <g>
        <path class="cls-7" d="m336.56,440.1c.43-.22.68-.4.83-.59.47-.33.75-.57.84-.77.21-.41-.19-.68.23-.91-.32.09-.62.2-.9.31-.14.06-.27.12-.4.17-.12.06-.28.14-.29.15-.16.1-.29.2-.4.3-.23.19-.38.37-.47.52-.18.31-.15.51-.04.65.22.27.72.29.6.17Z"/>
        <path class="cls-7" d="m332.48,449.91l-.41-.34c.22.52.47,1.02.71,1.51l-.31-1.17Z"/>
        <path class="cls-7" d="m330.03,456.18c2.21.1.48-2.37,1.59-3.23h.52s-1.39-1.15-1.39-1.15c-.31,1.5.17,3.62-.73,4.38Z"/>
        <path class="cls-7" d="m324.56,458.21c.87.02.46.95.5-.74-.11.05-.17.06-.25.09-.03.14-.09.34-.25.65Z"/>
        <path class="cls-7" d="m324.81,457.56c.15-.71-.81.25,0,0h0Z"/>
        <path class="cls-7" d="m324.39,460.83l-.48-1.09c-.52.06-.84.83-1.11.44.15,1.03.67.96,1.59.65Z"/>
        <path class="cls-7" d="m325.68,462.07l-.18-.54c-.22.03-.32.13.18.54Z"/>
        <path class="cls-7" d="m325.11,460.39l.39,1.14c.37-.04,1.04.13-.11-.51.59.24.05-.1-.27-.64Z"/>
        <path class="cls-7" d="m325.57,459.92c.58-.37,1.03-.92,1.51.16.07-.87-.22-1.37-.61-1.41-.38-.04-.83.37-.9,1.25Z"/>
        <path class="cls-7" d="m332.04,457.18l.79-.43-.48-.77c.23.38-.97,1.04-.31,1.21Z"/>
        <path class="cls-7" d="m321.96,466.11c.43.16,1.25-.03,1.83.04l-.36-.77c-.38.26-.8.84-1.47.73Z"/>
        <path class="cls-7" d="m323.79,466.15l.54,1.14c.28-.84-.04-1.09-.54-1.14Z"/>
        <polygon class="cls-7" points="327.94 462.82 326.77 460.82 327.89 463.13 327.94 462.82"/>
        <polygon class="cls-7" points="321.07 469.84 320.15 469.07 321.52 470.38 321.07 469.84"/>
        <path class="cls-7" d="m320.77,472.35c-.78-.58-1.56.28-2-.26.02.71.65,1.42,1.21,2.06-.26-.62-.06-1.19.79-1.81Z"/>
        <path class="cls-7" d="m320.78,475.2c-.15-.31-.47-.66-.8-1.04.14.33.37.67.8,1.04Z"/>
        <path class="cls-7" d="m323.74,468.89c-.29.02-1.02.01-1.44.49l1.34-.12c.03-.12.07-.25.1-.38Z"/>
        <path class="cls-7" d="m323.68,469.26h-.04c-.12.41-.21.69-.25.81.03-.1.11-.35.29-.81Z"/>
        <path class="cls-7" d="m323.77,468.79s-.02.06-.03.09c.13-.01.18-.02.03-.09Z"/>
        <path class="cls-7" d="m326.18,465.06c.57.73,1.06,2.07,2.37,1.2-.76-.6-1.52-.1-2.37-1.2Z"/>
        <path class="cls-7" d="m325.44,468.66l.52-.96c-.33-.05-.86.02-1.14-.34l.63,1.29Z"/>
        <polygon class="cls-7" points="325.73 469.25 325.44 468.66 325.25 469.02 325.73 469.25"/>
        <path class="cls-7" d="m322.3,473.65c.46.55.42,1.04.4,1.6.36-.54.61-1.12.72-1.69-.38-.16-1.04-.55-1.12.09Z"/>
        <path class="cls-7" d="m323.07,471.54s.03.08.05.11c.12-.04.16-.08-.05-.11Z"/>
        <path class="cls-7" d="m321.76,480.63l.24-.05c-.07-.02-.14-.04-.22-.06l-.03.1Z"/>
        <path class="cls-7" d="m323.67,473.51c.33-.39.07-.71-.27-1.04.06.35.08.72.02,1.09.17.07.29.1.25-.05Z"/>
        <path class="cls-7" d="m321.09,476.81c.3-.18.57-.4.83-.64-.45.15-1.14.5-.83.64Z"/>
        <path class="cls-7" d="m322.75,471.73s-.03-.05-.04-.08c-.3.09-.16.1.04.08Z"/>
        <path class="cls-7" d="m322.75,471.73c.14.26.41.5.65.74-.05-.29-.13-.56-.28-.82-.1.04-.25.06-.38.08Z"/>
        <path class="cls-7" d="m329.62,483.55c-1.16-.26-2.06-1.57-.64-2.34-.72-1.11-4.68-1.14-6.97-.64.51.11.98.2,1.51,1.31.7-.25,1.86-1.97,2.79-.95.39,1.42-.59,1.01-1.32,1.55,1.55-.31,1.85,2.02,4.05,2.06l-.57-1.26c.34.03.8.53,1.16.26Z"/>
        <path class="cls-7" d="m322.45,478.68l-.08-.44c-.28.44-.81.7-1.83,1.17.46.79.87,1.01,1.25,1.12l.5-2.02.15.17Z"/>
        <path class="cls-7" d="m322.68,476.37c1.21.56,1.59,1.64,3.07,1.28.12-1.22-.91-1.04-1.32-1.86-.06,2.02-.6-.69-1.59.59-.14-.43-.14-.79-.13-1.13-.22.33-.48.63-.78.92.03-.01.06-.02.09-.03h0s.02,0,.02,0c.17-.06.28-.07.17.01.01,0,.02.03.02.05.17.05.32.11.46.18-.37.52-.35.03-.46-.18-.06-.02-.12-.04-.18-.06h-.02c.1.71.24,1.4.36,2.1.25-.39.29-.91.31-1.87Z"/>
        <path class="cls-7" d="m331.03,467.91c-.12.03-.21.01-.31,0,.13.16.22.23.31,0Z"/>
        <path class="cls-7" d="m330.09,468.52c-.14-.18-.62-.41-.39-.83.47-.31.6.14,1.02.22-.27-.35-.69-1.17-1.49-.45l.14.18c-.61.67-2.41,1.33-2.55,1.16,1.19.02,2.04,0,3.27-.27Z"/>
        <path class="cls-7" d="m326.67,472.51l.31,1.74,1.26-.61-.67-.09c.44-.87-.41-.83-.9-1.05Z"/>
        <polygon class="cls-7" points="321.1 480.71 319.79 480.27 321.53 481.53 321.1 480.71"/>
        <polygon class="cls-7" points="320.91 482.87 319.74 482.61 320.36 483.29 320.91 482.87"/>
        <path class="cls-7" d="m314.94,603.1l.18.55c-.03-.24-.1-.41-.18-.55Z"/>
        <path class="cls-7" d="m316.07,599.91l-.53-.26c.26.25.46.39.53.26Z"/>
        <path class="cls-7" d="m316.05,534.93c-1.17.57-2.95,1.16-1.62,1.21l1.31-.08c-.19-.5,0-.85.3-1.13Z"/>
        <path class="cls-7" d="m318.2,570.77c.14-.03.29-.07.44-.1-.39-.27-.75-.53-1.09-.76.2.26.42.55.65.86Z"/>
        <path class="cls-7" d="m323.28,572.6l-1.06.7c.34-.13.69-.35,1.06-.7Z"/>
        <path class="cls-7" d="m311.27,621.18l1.15.85c.2-.82-.54-.63-1.15-.85Z"/>
        <path class="cls-7" d="m318.61,504.94c-.54.56-.79,1.03-.87,1.44.79-.67,1.94-1.17.87-1.44Z"/>
        <path class="cls-7" d="m302.2,597.59c.13.36.34.56.62.64-.12-.36-.3-.6-.62-.64Z"/>
        <path class="cls-7" d="m317.64,508.13c.14-.1.21-.2.32-.3-.19-.46-.34-.92-.22-1.45-.59.49-.97,1.08-.1,1.74Z"/>
        <path class="cls-7" d="m290.79,687.23c-.07.03-.12.08-.2.1.16.07.19,0,.2-.1Z"/>
        <path class="cls-7" d="m271.57,701.42c0-.21.11-.5.2-.79-.14.1-.22.33-.2.79Z"/>
        <path class="cls-7" d="m319.1,491.38c-.02-.46-.13-.09,0,0h0Z"/>
        <path class="cls-7" d="m324.51,489.89c.13.12.31.21.6.27-.31-.08-.49-.17-.6-.27Z"/>
        <path class="cls-7" d="m325.44,513.2s0,.02,0,.04c.26-.11.21-.1,0-.04Z"/>
        <path class="cls-7" d="m319.78,490.78c-.18.15-.34.33-.46.53.11-.08.26-.24.46-.53Z"/>
        <path class="cls-7" d="m319.16,490.79c.08-.15.13-.27.18-.38-.21-.09-.35-.05-.18.38Z"/>
        <path class="cls-7" d="m319.08,492.02c.02-.26.11-.5.24-.71-.1.08-.18.1-.22.07,0,.14,0,.33-.02.64Z"/>
        <path class="cls-7" d="m298.7,650.93s-.08.04-.15.06c.39.59.36.37.15-.06Z"/>
        <path class="cls-7" d="m328.19,548.02s-.04-.04-.06-.06c-.02.02-.04.04-.05.06h.11Z"/>
        <path class="cls-7" d="m328.96,549.77c-1.52-.91-1.28-1.27-.87-1.75l-3.79.05,4.66,1.7Z"/>
        <path class="cls-7" d="m312.97,610.94l1.42-.73c1.49,1.81.6,2.54,2.46,2.01-1.94-.63-1.75-1.69-1.56-2.74.21-1.04.43-2.09-1.5-2.75l1.03-.44c-.1.19.12.29.02.47,2.28-.77-2.51-1.87-1.42-3.45.48-.52,1.18-.76,1.51-.2l-.52-1.66c.21-.37.85-.05.64.31l.37-2.16.11.05c-.51-.49-1.23-1.47-1.52-1.93.73-.34.32.4.85.43l-.56-1.46c1.15-.13,1.81,1.15,1.41,1.89,4.21.23-.68-1.27,2.37-2.81l.12,1.25c2.43.05,1.92-1.06,3.71-1.81-.81.04-4.28,1.26-4.81-.31.41-.25.71-.66.17-1.6,1.37.47,1.26-.3,1.47-1.15l1.79.69c-.21-1.08-1.16-1.33-1.79-2.14.53-.94,2-.66,3.27-.49.85-1.51-2.64.33-2.32-1.69,1.16-1.09.74-2.31.19-4.31.95-.75,1.06.54,1.69.37l-1.17-1.33c.1-.2.53.02.74.13-.33-.9-1.8-.66-1.93-1.93-1.92-.93,3.66-1.41,1.8-3.53.63-.19,1.08.5,1.82.61-.91-2.39-.59-2-2.2-4.17l1.58-1.03c-1.66.63-2.96-1.1-4.03-2.53-.77.17-1.43.31-1.77.44l-.54-1.97c.36-.13.95.2,1.66.68-.12-.16-.24-.31-.36-.43.83-.45,1.84.13,2.76.84-.42.12-.87.24-1.32.34,1.02.72,2.15,1.45,3.27,1.64-.18-.17-.31-.44-.35-.71.28.19.53.34.73.33.21-.01-.15-.3-.55-.72l2.18.11-.8-.3,1.85-2.07c-1.73-2.21-4.42-4.31-4.83-7.11,1.42.96,2.49.64,4.31,1.03-2.06.35.44,2.25-.29,3.57.37-.68,1.2-.34,1.46-.09-.38-.96-.79-1.92-1.23-2.86,1.48.35,1.22-.31,1.96-.84-3.04-.08-1.62-2.24-2.34-3.41,1.01.11,1.97.54,1.5,1.74,2.48-.98-3.14-2.38-1.01-3.38-.03.3-.21.44.27.65-.74-.85.19-2.45,1.01-1.91l-.03.3c.66-1.95.95-6.11-1.54-6.75.33.02,3.01.68,3.5.87-2.65-1.59-5.37-3.14-8.06-4.67,2.14.59,7.46.04,8.49,1.86.37-.44.8-.99.16-2.09-.35.29-3.24.42-3.39-.05,2.57-.92,1.4-.68,3.65-1.94-.53.43-3.87-.51-3.67-1.26.5.18,3.38.32,3.7.64l-3.12-2.29c.55.54,2.83.4,3.83.07-.67.13.22-1.65-.06-2.2l-.86.73c.72-2.12-4.51-2.62-4.13-4.72.67.32,4.21,1.05,4.74,0-1.67-.67-8.06-2.98-9.21-4.95l1.02-.27-1.01-1.53c2.54,1.11,7.74,4.1,9.72,5.7.86-.74,1.18-.12,1.21-1.34.96-.35,1.33.79,1.35,1.16l.87-2.79c-2.01-.05-1.85-2.34-3.53-2.37.62,1.08,1.24,2.16,1.82,3.25-2.01-.06-5.53-2.27-5.04-4.22.84-.44,3.55.67,4.22.69-.67-.32-1.18-2-.67-2.15l1.01.93c.84-1.06-2.53-2.03-.5-3.21.16-.45,2.7-1.18,1.51-1.35-2.35.59-9.46.19-11.15-.43.17-.15,2.38-2.23,3.55-2.67,1.86-.63,4.2,1.44,5.8.91-.55-.07-1.19-.53-1.4-.72.51-.45,1.69.32,1.52-.75-2.02-.32.32-2.11-1.69-.62-.52-1.06.49-1.06.47-2.26-1.34.29-4.42-1.39-4.94-2.46.51.1,1.2-.08,1.52-.17.31-2.08,1.3-3.14,1.44-5.09.5-.14,1.16-1.04,2.01-.57-.34-.31-1.02-.62-1.03-1.23,1.83-1.02.19,1.36,2.36.64-1.18-.17-1.54-1.68-2.23-2.6-1.85.11-.47,1.95.22,2.87-2.52-.19-5.09-1.9-6.11-4.05-.43-1.7,1.72-.57,1.39-.89.81-3.02-4.09-3.06-1.96-5.46,1.72-.84,3.19.32,4.38.22.45,1.39-1.26,1.92-1.31,2.83l.89-1.03c.48.48.78,1.39.26,1.83,1.55-.69.88-5.11,2.51-7.27-.48-.48-.93-1.27-1.62-1.02l.12.77c-1.39.51-1.59-1.63-2.32-.77-.77-1.12-2.03-2.44-1.1-3.75h1.86c-.54-.05-1.21.76-.72,1.23-.72-.7,2.77-1.8.48-2.79l-1.4.8c-.77-1.14-2.53-2.68-1.77-3.85-1.89.3.16.32-2.07.9,2.72-.38-.57,3.21,2.36,2.37-2.57.56-1.26,1.43-3.51,2.35.61.05,1.21-.27.76.75.17.07.38.22.5.3-.02.03-.03.04-.05.07.03-.02.05-.03.08-.05.08.06.1.06.03-.02.3-.22.64-.38.99-.41,1.31.71,1.03,2.38,1.66,3.04-.36.59-.66-.35-1.34-.09l.97.99c-1.35-.09-2.42,1.42-3.03-.18l-.22,1.35c-.85.71-1.28,1.79-.8,2.53-.37.61,1.29,1.77.31,1.11l.58,2.21h-.34c-.1.51-.05,1.05.05,1.61.11.55.3,1.1.4,1.66.21,1.11.13,2.24-1.15,3.32.3.72.67,1.46.22,2.59l-1.18.14c.35.92-1.32,2.58-.14,3.05-3.18.74-.94,4.27-1.63,5.73l1.51.17c-.17,1.05.19,2.09.7,3.44l1.35.02c1.01,1.22-1.18,2.83-1.17,4.62-.5-.16-.33-.61,0-.9-3.17,1.88,1.82,4.68-.57,6.41.44.53.24.86-.13,1.16,0-.04-.02-.09-.06-.13-.02.05-.03.12-.04.2-.25.19-.54.38-.78.6.34-.17.63-.33.77-.49,0,.37.1.95.39,1.53l-1.46.09s0,.08.03.13c-.58.48.64.5,1.75.32.21.3.47.58.8.82-2.36.2.64,1.53-1.89,1.86,1.18.5.58,2.84,3.08,3.43-.33-.02-.51.12-.49-.18-.36.58-.73,1.15-.08,1.79l-1.85.04,2.29,1.64c-1.21.67-1.89.92-3.2-.06,1.91,2.21.64,1.68,2.54,3.61l-1.16-.24c-.04.59,1.39,1.76.36,1.97-1.22.49-1.54,2.1-1.88,3.96-.33,1.86-.82,3.95-2.14,5.4,3.55.03-1.82,1.23.81,1.89-.84.03-1.39.39-1.99-.29.43,1.83-1.84,2.18.14,3.83-.85,0-1.1-.63-1.62-.57.14.17.58.68.06.74-.52.05-.62-.4-.91-.74-.24,1.69,2.2,2.47,4.49,3.17-1.31.6-1.28,1.05.07,2.07-.84.11-1.76.39-1.75-.73-.27.57-2.07,3.29-.24,3.88-.52.05-.39.78-.22,1-.51,1.29-.71,1.36-.94,2.71l.41-.27c2.04,1.2.18,1.24.09,2.38l-.22-.1c-2.39,1.89.41,1.3-2.19,3.06l1.41.33c2.86,1.22-2.44,1.52-1.81,3.29l.95-.23c.74,1.11-4.71.74-5.34,1.37-.31.08-.32-.41-.43-.7-2.42,1.41,1.69.88,1.59,2.52-1.06-.06-2.32-1.2-2.85-.25-.95.25,2.1,3.99-.2,4.77.85-.06,1.69-.11,2.01.78-.09,1.16-3.78,2-1.76,3.74-.25.07-.46.06-.65,0,.33,1.02.17,3.03,1.29,3.92-2.49-.35-2.32,1.13-2.06,2.51.24,1.38.64,2.68-1.57,2.03l-.49,2.65-.43-.19c-.76,1.57.14,2.45,1.04,3.31-.41.3-.74-.09-.97-.18-1.54,2.17-1.39,2.48.3,5.07l-1.49-.16c.71.74-3.17,2.98-2.06,5.7-.16-.06-.43-.18-.58-.41,1.04,3.04-5.55,5.23-.54,7.52l.84,2.06c1-2.13,2.19.92,3.3.23.07.96-2.18,1.87-2.17.71l.31-.1c-2.63-1.11-1.7,2.52-3.55,1.97-1,4.43-3.73,8.25-4.98,12.29l2.24.13-.53,1.39c-.6.23-1.8.02-1.41-.96-1.35.19.5,1.99.95,2.15-1.44,1.73-2.23-1.49-2.46-.9l-.08.87.3-.11c.66.92,1.56,1.25,1.1,2.43-.65.65-1.41.01-1.58.29-.15-.05-.25.04-.2.45l-.7,1.73,1.87-.22c.59,1.04-.59,1.66,1.54,1.4-3.26.34-3.08,6.34-4.21,6.81.86,1.48.48,2.57-.09,3.87.45-.23,2.37.16,1.77,1.26-3.69-1.65-2.34,1.6-5.39,1.65,2.1-.24-.64,3.44,2.38,2.98-.63.87-1.45-.41-2.59.03.72,2.8-2.64,4.75-3.12,7.74.48.22,1.41,0,1.94.87l-3.01.63c.05.64,2.7,1.52.61,1.93.47,0,1.18,0,1.2.44-4.35,4.66-2.09,12.06-8.74,15.87,1.24-.38,1.15.16.96.74.37-.28,1.21.48,1.91.67l-2.75,1.59c1.68,1.15-.86,2.51.8,3.46l-.02-.85c1.69,1.82,5.16.49,7.78,1.69-1.93-2.04,4.68-1.57,1.98-4.73.7-.2.73.68,1.44.7-.97-.91-1-1.56-.08-2.4l.24.23c.82-3.04,2.43-3.86,4.39-6.9l-1.42-.24c.44-.64.91-.64,1.37-.85-1.73-1.55-.84,1.95-2.8.4,3.07.05,1.84-4.99,5.16-4.53.4-1.09-1.67-.23-1.26-1.31h.94s-.98-.65-.98-.65c.43-.66,1.61-.65,2.33-.43-.14.15.02.57.02.78,1.32-.59.57-2.76,1.01-2.97l-.88.88c.25-3.27,2.6-6.57,1.84-10.05h-.71c-.44-2.59,1.29-1.53,1.53-4.16l.12.14c-.48-.69-.59-1.45-.31-2.09.55.86,1.83-.7,2.39.38-.5-2.82-.61-1.51-2.48-3.85l1.18-.03c-.79-.84-1.29-1.05-1.19-2.35.6,1.29,1.86-.28,2.72,1.22,3.12-1.86-1.18-4.53,2.59-4.68-2.59-2.07-2.32,1.73-2.75.88-1.13.26-1.9-1.64-1.36-2.35.32-.79,4.19-.26,4.75-2.35-.07.2.14.28.07.48.98-.56-.57-1.82.93-2.42-1.63-1.06.47-1.21-1.77-2.02l-.03,2.05c-.28-1.25-2.65-3.03-.84-4.43.42.27.87.97,1.1,1.43.83-.32-.15-1.13.69-1.47,2.25.81-.17,2.45,1.23,4.12,1.13-.28-1.01-2.67,1.29-1.37-2.89-1.74.99-1.94-1.02-4.04l1.34.48c-.15-.28-.67-.93-.52-1.33l1.57,1.25c-1.2-1.57,1.94-1.84,1.43-3.17-.6,2.31-1.8.06-3.07.75-1.05-3.34,4.05-.63,4.27-4,.08.49-1.27,1.39-1.72.55.45-.53,1.19-1.19,2.01-1.37.28-2.19-1.5-.06-2.11-1.18,1.87-.27-.41-1.22-.7-2.28l1.4.37c1.53-2.17-2.75-1.41-1.09-3.28l1.7,1.42-.2-1.26,1.53.65c-.86-1.54-.44-1.83.31-2.93-1.06.03-2.51-.81-2.28-1.89,1.01-.52,1.23.75,1.41-.82.79.56,1.8,1.22.34,1.55.44.18.8.56,1.23.75,1.15-.54.71-1.92.84-2.48-.11.2-.24.43-.48.51l-1.4-2.68c.61-.22.97.16,1.32.54-.04-.48-.61-.95-.57-1.63,1.1.45,2.29.7,2.6,1.76l-.74-2.41c.53-.02,1.63-.75,1.99-.37.96-1-1.52-3.3-.25-4.58-.2-.13-.37-.34-.46-.7.62-1.34,2.32-2.2,1.19-4.27l2.3-.38c-.1-1.41-2.92.56-3.08-1.79-.22-1.7,1.89-.09,2.61-.46-.82-1.03-2.52-2.95-.48-3.86.25.57-.15.85-.12,1.32Zm4.1-16.03c.18.41.86,1.32-.03,1.27-1.45-.88-.6-.9.03-1.27Zm4.42-25.91c.41.35.09.67-.53.97-.05-.33.09-.67.53-.97Zm-1.86-72.45s.04.03.07.04c-.65.69-.4.45-.07-.04Zm.81-1.48c-.18-.18-.38-.19-.59-.15.35.15.33.5.18.89.39-.07.67-.24.41-.74Zm-32.44,157.71l.44-.17c.21.75-.09.47-.44.17Z"/>
        <path class="cls-7" d="m322.7,572.38c-.26.03-.53-.01-.8-.06.2.19.47.26.8.06Z"/>
        <path class="cls-7" d="m311.06,621.03s-.02.03-.03.04c.08.05.16.08.24.11l-.21-.16Z"/>
        <path class="cls-7" d="m330.75,519.63c-.23.3-.51.46-.79.55.35.04.66-.08.79-.55Z"/>
        <path class="cls-7" d="m319.11,486.6l.23,1.04c0-.49.33-.61.59-.82-.34-.03-.85.09-.83-.22Z"/>
        <path class="cls-7" d="m329.29,479.58c-.15-.17.03-.3-.12-.47l-.67-.08c-.06.61.41,1.11.79.55Z"/>
        <path class="cls-7" d="m324,486.39c1.22.1.89-.57.77-1.28,0,.04,0,.08-.02.12-1.66-.46-1.2.35-.75,1.16Z"/>
        <path class="cls-7" d="m324.75,484.95c-.03-.22-.02-.44.07-.63-.66-.18-.19.23-.07.63Z"/>
        <path class="cls-7" d="m319.88,493c.36-.29-1.52-.41-1-.53-1.5-.57,1.58,2.45,1,.53Z"/>
        <polygon class="cls-7" points="328.04 486.44 326.52 486.46 327.67 487.02 328.04 486.44"/>
        <path class="cls-7" d="m326.2,491.61l.56-1.02c-.25-.02-.38-.18-.47-.36-.14.66-.54,1.35-.1,1.38Z"/>
        <path class="cls-7" d="m326.3,490.23c.08-.34.09-.68-.12-.9-.01.19-.02.6.12.9Z"/>
        <polygon class="cls-7" points="328.28 487.98 327.93 488.25 327.71 488.99 328.28 487.98"/>
        <path class="cls-7" d="m324.47,503.23c.08.41.23.81.34,1.22.51.16.84-.13.66-.59-.35-.31-.48-.77-1-.63Z"/>
        <path class="cls-7" d="m328.99,500.06c-.35.28-.68.27-1.2.4l1.85.22-.65-.62Z"/>
        <path class="cls-7" d="m329.02,503.48c.48.15,1.34,1.82,1.34.33-.5-.16-.78-1.35-1.34-.33Z"/>
        <polygon class="cls-7" points="325.51 521.1 325.51 520.8 322.46 520.62 325.51 521.1"/>
        <path class="cls-7" d="m331.45,537.54c.87-1.35-1.84-.52-.81-1.72-.69-.4-.84.97-1.43.57.68.93.2,1.34,2.24,1.14Z"/>
        <path class="cls-7" d="m329.2,536.4c-.11-.15-.24-.31-.42-.48.17.27.3.4.42.48Z"/>
        <polygon class="cls-7" points="268.85 703.84 267.93 704.42 269.09 704.28 268.85 703.84"/>
        <path class="cls-7" d="m270.32,706.26l-1.88-.55,1.44,1.14c0-.21-.02-.61.44-.59Z"/>
        <path class="cls-7" d="m321.59,593.84l-.42-.22c-.52-.04-.63.15-.84.52l1.26-.3Z"/>
        <polygon class="cls-7" points="316.43 604.73 316.53 604.55 314.74 604.39 316.43 604.73"/>
        <path class="cls-7" d="m315.78,614.89c.18-.37-.07-.93.11-1.3.07.93-2.26.82-.11,1.3Z"/>
      </g>
      <g>
        <path class="cls-7" d="m960.35,790.71c1.09.02.59-1.2.73-1.44-1.79.42-.66,1.76-.73,1.44Z"/>
        <polygon class="cls-7" points="942.7 795.02 942.98 794.48 940.44 795.95 942.7 795.02"/>
        <path class="cls-7" d="m925.95,796.36c1.74,2.01,6.04-.84,9.08-.32l.53.45,1.21-1.83c-3.6.57-8.23,2.09-10.83,1.7Z"/>
        <path class="cls-7" d="m916.71,792.3c.61.8-1.88.83,2.1.13-.21-.08-.27-.13-.39-.19-.36.03-.86.06-1.71.05Z"/>
        <path class="cls-7" d="m918.41,792.24c1.76-.17-1.2-.63,0,0h0Z"/>
        <path class="cls-7" d="m910.31,793.21l2.27-.88c-.52-.46-2.59-.45-1.84-.85-2.35.55-1.83,1.01-.43,1.73Z"/>
        <path class="cls-7" d="m908.2,794.91l1.18-.39c-.22-.19-.55-.25-1.18.39Z"/>
        <path class="cls-7" d="m911.9,793.7l-2.51.82c.36.32.44,1.02,1.16-.31-.17.65.3,0,1.35-.51Z"/>
        <path class="cls-7" d="m913.36,793.94c1.33.39,3.04.58.75,1.46,4.43-.56,3.67-2.03-.75-1.46Z"/>
        <path class="cls-7" d="m925.25,798.64l1.79.48,1.46-.84c-.73.42-3.4-.3-3.25.36Z"/>
        <path class="cls-7" d="m895.79,792.99c-.12.46.85,1.17,1.05,1.74l1.69-.63c-.9-.26-2.58-.44-2.74-1.11Z"/>
        <path class="cls-7" d="m896.84,794.72l-2.52.94c2.3-.05,2.7-.44,2.52-.94Z"/>
        <polygon class="cls-7" points="907.93 797.31 912.05 795.41 907.12 797.38 907.93 797.31"/>
        <polygon class="cls-7" points="886 793.44 887.4 792.33 884.89 794.02 886 793.44"/>
        <path class="cls-7" d="m879.51,793.88c1.04-.92-1.54-1.42-.43-2-1.76.23-3.23,1.04-4.56,1.76,1.43-.43,2.97-.4,4.98.24Z"/>
        <path class="cls-7" d="m872.28,794.72c.71-.24,1.44-.64,2.24-1.07-.76.23-1.5.55-2.24,1.07Z"/>
        <path class="cls-7" d="m889.93,795.7c-.21-.27-.63-.97-2.09-1.22l1.07,1.24c.31,0,.66-.01,1.01-.02Z"/>
        <path class="cls-7" d="m888.96,795.76l-.04-.04c-1.1,0-1.86.01-2.19.02.28,0,.95.01,2.22.02Z"/>
        <path class="cls-7" d="m890.19,795.69c-.09,0-.16,0-.26,0,.1.12.16.16.26,0Z"/>
        <path class="cls-7" d="m901.13,796.56c-1.47.81-4.58,1.77-1.47,2.67,1.03-.94-.74-1.46,1.47-2.67Z"/>
        <path class="cls-7" d="m891.52,797.22l2.74.13c-.07-.33-.59-.8.14-1.2l-2.88,1.07Z"/>
        <polygon class="cls-7" points="890.21 797.7 891.52 797.22 890.51 797.17 890.21 797.7"/>
        <path class="cls-7" d="m877,795.73c-1.15.6-2.44.7-3.9.85,1.57.19,3.19.26,4.72.2.2-.41.84-1.16-.83-1.05Z"/>
        <path class="cls-7" d="m882.82,795.86c-.08.03-.18.05-.26.08.17.1.3.13.26-.08Z"/>
        <path class="cls-7" d="m858.77,797.15c.08.08.15.15.24.22.02-.08.03-.15.05-.22h-.28Z"/>
        <path class="cls-7" d="m878.1,797.01c1.18.2,1.87-.14,2.52-.56-.87.16-1.8.28-2.8.34-.09.19-.1.31.27.23Z"/>
        <path class="cls-7" d="m868.31,795.48c.62.24,1.32.44,2.06.62-.61-.38-1.85-.97-2.06-.62Z"/>
        <path class="cls-7" d="m882.15,795.6c.06-.02.11-.05.17-.06-.4-.26-.34-.13-.17.06Z"/>
        <path class="cls-7" d="m882.15,795.6c-.6.21-1.06.54-1.52.84.71-.13,1.37-.29,1.93-.51-.15-.09-.3-.22-.41-.34Z"/>
        <path class="cls-7" d="m854.65,805.49c.18-1.19,3.24-2.34,5.95-1.19,2.6-1,.75-4.83-1.6-6.93-.07.51-.05,1.02-2.73,1.79.96.65,6.04,1.29,3.79,2.46-3.56.76-2.95-.31-4.71-.9,1.52,1.45-4.5,2.24-3.66,4.4l3.13-.83c.07.34-1.06.9-.17,1.19Z"/>
        <path class="cls-7" d="m864.15,797.29l1.1-.19c-1.27-.16-2.19-.59-3.89-1.46-1.83.65-2.2,1.11-2.31,1.51l5.47-.05-.37.19Z"/>
        <path class="cls-7" d="m870.24,796.89c-.82,1.33-3.47,1.98-1.78,3.32,3.26-.22,2.25-1.17,4.17-1.81-5.25.53,1.48-.78-2.34-1.36,1.02-.26,1.95-.37,2.83-.45-.95-.12-1.87-.28-2.74-.48.05.03.08.05.12.08h.02s0,.02,0,.02c.23.15.31.25.05.16-.02.02-.08.03-.11.03-.03.18-.12.34-.22.5-1.53-.21-.25-.33.22-.5.02-.06.05-.13.06-.19,0,0-.01-.01-.02-.02l-5.24.92c1.12.14,2.51.04,4.98-.2Z"/>
        <path class="cls-7" d="m897,802.18c-.17-.1-.17-.2-.19-.29-.33.18-.46.29.19.29Z"/>
        <path class="cls-7" d="m894.79,801.53c.37-.2.67-.74,1.92-.68,1.1.32.03.62.11,1.04.73-.39,2.58-1.09.19-1.57l-.36.2c-2.15-.31-4.96-1.76-4.6-1.96.68,1.12,1.27,1.92,2.74,2.97Z"/>
        <path class="cls-7" d="m882.36,799.59l-4.37.81,2.29,1.03-.14-.67c2.51.16,1.93-.64,2.22-1.17Z"/>
        <path class="cls-7" d="m858.25,796.53l.54-1.39-2.47,2.01c.65-.19,1.29-.41,1.93-.62Z"/>
        <polygon class="cls-7" points="852.56 796.82 852.74 795.63 851.25 796.38 852.56 796.82"/>
        <path class="cls-7" d="m530.71,776.38l-1.36-.05c.63.08,1.04.09,1.36.05Z"/>
        <path class="cls-7" d="m539.79,779.18l.39-.49c-.51.18-.75.36-.39.49Z"/>
        <path class="cls-7" d="m712.83,793.65c-1.78-1.27-3.72-3.17-3.6-1.82l.47,1.35c1.32-.12,2.31.12,3.14.47Z"/>
        <path class="cls-7" d="m616.66,789.39c.15.16.32.32.48.48.53-.36,1.02-.7,1.47-1.01-.58.16-1.25.33-1.94.52Z"/>
        <path class="cls-7" d="m614.41,794.46l-2.32-1.26c.5.39,1.24.8,2.32,1.26Z"/>
        <path class="cls-7" d="m481.48,760.21l-1.91.66c2.22.88,1.49-.13,1.91-.66Z"/>
        <path class="cls-7" d="m794.22,797.72c-1.61-.55-2.89-.79-4.02-.88,1.94.79,3.49,1.95,4.02.88Z"/>
        <path class="cls-7" d="m538.3,764.24c-.82,0-1.22.16-1.28.44.84.02,1.35-.09,1.28-.44Z"/>
        <path class="cls-7" d="m785.52,796.73c.28.14.56.21.85.33,1.19-.19,2.38-.34,3.82-.22-1.43-.59-3.07-.97-4.67-.11Z"/>
        <path class="cls-7" d="m317.38,670.61c-.08-.13-.19-.24-.26-.37-.13.12.01.24.26.37Z"/>
        <path class="cls-7" d="m280.97,628.48c.48.25,1.18.76,1.85,1.22-.27-.31-.82-.69-1.85-1.22Z"/>
        <path class="cls-7" d="m829.63,796.69c1.21-.11.19-.15,0,0h0Z"/>
        <path class="cls-7" d="m835.58,801.73c-.26.15-.45.34-.47.64.1-.32.26-.52.47-.64Z"/>
        <path class="cls-7" d="m773.26,804.55s-.06,0-.1,0c.35.26.29.21.1,0Z"/>
        <path class="cls-7" d="m831.46,797.25c-.46-.15-.98-.27-1.55-.36.25.1.72.21,1.55.36Z"/>
        <path class="cls-7" d="m831.21,796.64c.42.04.74.07,1.06.11.15-.22.01-.35-1.06-.11Z"/>
        <path class="cls-7" d="m827.95,796.8c.69-.03,1.34.02,1.96.1-.24-.08-.34-.15-.28-.2-.35.02-.85.05-1.68.1Z"/>
        <path class="cls-7" d="m404.49,720.07c-.05-.07-.12-.14-.18-.23-1.34-.07-.82.1.18.23Z"/>
        <path class="cls-7" d="m680.12,804.12c.06,0,.09-.04.15-.05-.06-.02-.12-.05-.17-.07l.03.11Z"/>
        <path class="cls-7" d="m675.65,804.6c2.04-1.4,3.07-1.09,4.44-.59l-1.03-3.89-3.41,4.48Z"/>
        <path class="cls-7" d="m509.04,769.54l2.54,2.14c-4.17.56-6.52-.98-4.31,1.55.89-1.85,3.77-.93,6.65-.02,2.89.88,5.81,1.7,6.65-.16l1.68,1.45c-.54-.22-.71-.02-1.25-.24,3.18,3.1,3.72-1.88,8.4.27,1.61.82,2.63,1.74,1.32,1.85l4.11.18c1.09.41.61,1-.47.6l5.91,1.43-.08.1c1.01-.37,3.16-.75,4.19-.89,1.33.96-.86.22-.62.8l3.51-.08c1.04,1.36-1.93,1.66-4.12.88,1.94,4.75,2.97-.26,8.91,3.78l-3.21-.32c1.39,2.76,4.02,2.6,7.18,4.92-.66-.96-6.09-5.38-2.3-5.42.92.56,2.2,1.06,4.3.76-.33,1.41,1.62,1.51,3.97,1.98l-.61,1.83c2.66.06,2.68-.93,4.36-1.42,2.76.85,3.01,2.44,3.39,3.82,4.44,1.37-2.57-3.06,2.84-2.15,3.59,1.55,6.4,1.35,11.13,1.21,2.49,1.22-.71,1.05.12,1.79l2.65-.99c.56.16.28.58.14.79,2.08-.16.56-1.83,3.74-1.69,1.25-1.91,5.73,4.28,10.03,2.68.84.72-.68,1.06-.53,1.85,5.56-.53,4.72-.19,9.42-1.51l3.45,1.89c-2.45-1.89,1.31-2.96,4.57-3.81-.83-.85-1.54-1.6-2.04-1.98l4.98-.17c.53.41-.07.98-.99,1.63.35-.1.69-.2.96-.3,1.6,1,.52,1.94-.9,2.78-.52-.48-1.04-.98-1.53-1.47-1.39.94-2.73,2.01-2.68,3.16.35-.16.99-.24,1.67-.23-.37.26-.61.5-.5.71.13.23.71-.1,1.58-.44l.73,2.3.41-.79,6.11,2.43c4.9-1.41,9.33-3.94,16.62-3.71-2.01,1.28-.76,2.47-1.13,4.3-1.67-2.25-5.7-.03-9.38-1,1.92.5,1.35,1.31.81,1.54l6.94-.74c-.38,1.48,1.24,1.35,2.89,2.24-.88-3.17,5.25-1.2,8.1-1.8.03,1.02-.76,1.96-4.05,1.28,3.35,2.72,5.21-2.87,8.53-.49-.81-.08-1.23-.29-1.62.17,2.01-.64,6.53.68,5.33,1.4l-.81-.09c2.66.53,6.75,1.09,10.31,1.18,3.57.03,6.6-.36,7.15-1.58.02.33-1.06,2.98-1.44,3.45l10.53-7.47c-1.08,2.09,1.62,7.64-2.98,8.37,1.25.45,2.8.99,5.59.52-.85-.41-1.85-3.39-.64-3.46,3.03,2.77,2.13,1.59,5.98,4.03-1.27-.58.53-3.87,2.59-3.58-.37.48-.15,3.39-.94,3.68l5.48-2.9c-1.34.49-.49,2.83.58,3.88-.48-.71,4.47.46,5.88.25l-2.12-.97c5.8,1.02,6.16-4.21,11.91-3.54-.75.64-2.07,4.16.85,4.78,1.49-1.63,6.59-7.89,11.76-8.88l.91,1.05,3.98-.86c-2.58,2.43-9.81,7.43-13.73,9.3,2.13.93.52,1.2,3.81,1.33,1.09,1-1.89,1.28-2.86,1.27l7.61,1.11c-.2-2.04,5.97-1.63,5.79-3.32l-8.43,1.53c-.19-2.03,5.17-5.39,10.53-4.68,1.32.89-1.24,3.52-1.17,4.19.74-.65,5.21-.98,5.68-.46l-2.35.92c2.97.98,5.06-2.41,8.58-.31,1.24.19,3.6,2.76,3.88,1.58-1.93-2.39-1.96-9.52-.53-11.18.42.17,6.41,2.49,7.78,3.69,1.97,1.9-3.26,4.16-1.59,5.79.1-.55,1.26-1.17,1.75-1.37,1.29.53-.61,1.68,2.24,1.56.56-2.02,5.79.43,1.42-1.67,2.81-.46,2.94.55,6.22.61-.99-1.34,3.09-4.42,5.88-4.94-.18.52.42,1.21.72,1.52,5.69.32,8.73,1.32,14.04,1.46.48.51,3.04,1.17,1.93,2.02.77-.34,1.49-1.02,3.13-1.03,3.15,1.84-3.66.19-1.28,2.37.23-1.2,4.27-1.5,6.62-2.27-.7-1.81-5.39-.42-7.75.25.02-1.27,1.05-2.54,2.78-3.62,1.72-1.07,4.14-2,6.91-2.59,4.41-.62,1.89,1.64,2.66,1.28,8.28.46,7.06-4.41,13.91-2.56,2.73,1.62.13,3.21.74,4.37-3.59.6-5.51-1.04-7.95-.98l2.99.77c-1.14.53-3.54.94-4.85.47,2.28,1.44,14,.35,20.4,1.62,1.13-.56,3.09-1.16,2.15-1.79l-2.02.26c-1.87-1.27,3.78-1.87,1.22-2.43,2.7-.97,5.71-2.46,9.53-1.8l.75,1.83c-.09-.54-2.51-1.05-3.57-.47,1.57-.84,5.89,2.38,7.59-.06l-2.7-1.22c2.7-.98,6.01-2.99,9.39-2.48-1.58-1.79-.77.22-3.22-1.86,2.13,2.6-8.62.05-5.23,2.77-2.5-2.42-4.27-.96-7.51-3.01.11.6,1.15,1.14-1.68.89-.13.18-.42.41-.61.55-.09-.02-.12-.03-.19-.04.06.02.1.04.16.07-.12.09-.13.11.06.02.68.25,1.23.56,1.45.9-1.39,1.42-5.89,1.46-7.41,2.21-1.68-.29.7-.7-.23-1.34l-2.27,1.07c-.24-1.35-4.47-2.25-.53-3.03l-3.56-.07c-2.1-.76-4.97-1.07-6.75-.5-1.68-.3-4.24,1.48-2.78.43l-5.58.82-.05-.34c-2.75-.09-5.59.46-8.53.73-2.93.21-5.97.13-9.09-1.16-1.86.3-3.78.67-6.87.21l-.57-1.18c-2.39.35-7.1-1.33-8.16-.14-2.46-3.13-11.49-1.14-15.64-1.87l-.22,1.51c-2.87-.22-5.64.09-9.25.54l.15,1.35c-1.57.48-3.54.15-5.72-.31-2.18-.51-4.58-1.15-7.01-1.24.36-.49,1.59-.27,2.44.09-5.61-3.42-12.41,1.39-17.53-1.17-1.35.4-2.29.17-3.18-.23.12,0,.23-.01.33-.05-.13-.03-.33-.04-.54-.05-.56-.28-1.14-.6-1.76-.88.52.37,1.03.69,1.47.85-1.01-.06-2.56-.03-4.09.17l-.52-1.5c-.12,0-.22,0-.35.01-1.43-.66-1.24.58-.55,1.73-.78.17-1.49.39-2.06.69-1-2.43-4.02.43-5.43-2.19-1.12,1.12-7.64.24-8.69,2.71-.02-.34-.45-.53.37-.48-1.65-.43-3.3-.88-4.87-.34l-.52-1.91-3.91,2.05c-2.11-1.36-2.95-2.11-.6-3.27-5.55,1.57-4.4.34-9.18,1.98l.36-1.16c-1.62-.13-4.4,1.16-5.26.08-1.68-1.3-6.13-2.01-11.29-2.74-5.16-.76-11.05-1.5-15.5-3.3,1.27,3.73-4.05-2.21-4.83.41-.41-.9-1.63-1.56-.02-2.04-4.83.08-6.85-2.38-10.47-.63-.4-.9,1.2-1.04.8-1.6-.41.13-1.61.46-2.01-.11-.4-.57.8-.56,1.6-.79-4.8-.7-5.71,1.72-6.47,4.02-2.24-1.54-3.48-1.6-5.51-.36-.71-.92-1.98-1.97,1.05-1.73-1.66-.41-10.03-2.92-10.55-1.12-.43-.58-2.31-.6-2.79-.47-3.73-.85-4.02-1.09-7.74-1.63l.96.51c-1.91,1.98-3.17-.09-6.19-.42l.13-.21c-6.43-3.11-3.1.14-9.38-3.18l.05,1.48c-1.29,2.87-5.55-3.03-9.66-2.84l1.21,1.13c-2.36.53-4.94-5.5-6.95-6.38-.4-.37.83-.25,1.52-.29-5.09-3.09-1.16,1.66-5.39,1.1-.51-1.18,1.58-2.26-1.11-3.14-1.14-1.15-8.76,1.08-11.99-1.79.61.97,1.22,1.95-.83,2.01-2.99-.54-6.96-5.15-10.27-3.55-.3-.31-.38-.55-.34-.74-1.19-.03-3.07-.29-4.84-.49-1.78-.21-3.47-.31-4.34.11-.25-2.7-3.83-3.24-7.18-3.65-3.35-.42-6.44-.83-5.66-2.97l-6.76-2.14.33-.38c-4.17-1.78-6.02-1.4-7.91-.91-.87-.66,0-.79.16-.99-5.87-3.24-6.56-3.21-12.56-3.19v-1.6c-1.71.23-8.02-5.68-14.66-6.66.12-.13.36-.34.92-.34-7.47-1.19-14.4-10.73-19.06-6.85l-4.95-.79c5.53,2.98-1.82,1.75.16,3.64-2.38-.74-5.14-4.14-2.26-3.13l.32.44c2.18-2.11-6.68-4.13-5.71-5.83-11.24-5.07-21.35-11.74-31.61-17.02l.21,2.56-3.55-1.92c-.72-.93-.5-2.17,2.03-.8-.79-1.79-4.78-1.23-5.07-.85-4.62-3.35,3.12-1.29,1.6-2.12l-2.17-.92.36.47c-2.1-.06-2.68.71-5.72-.96-1.75-1.38-.39-1.71-1.12-2.18.08-.14-.15-.33-1.15-.66l-4.45-2.48,1.03,2.47c-2.4-.27-4.24-2.26-3.02.56-.43-1.07-1.68-2.2-3.33-3.33-.41-.28-.86-.56-1.3-.85-.43-.28-.87-.57-1.33-.84-.91-.56-1.88-1.1-2.84-1.63-1.92-1.05-3.85-2.22-5.37-3.11-1.52-.91-2.65-1.65-2.97-2.14-3.31-.62-5.93-2.27-9.07-4.5.6.83.02,2.78-2.63.75,3.22-2.7-4.14-4.79-4.76-8.69.92,2.93-8.09-4.88-6.49-.52-2.12-1.82.7-1.34-.51-3.3-6.34-2.42-11.44-9.04-18.44-13.27-.41.36.26,1.8-1.63,1.45l-2.03-4.63c-1.47-.71-2.96,1.64-4.33-1.55.09.6.21,1.51-.77,1.02-11.62-11.3-27.94-17.22-38.3-30.68,1.19,2.12-.06,1.34-1.45.39.74.84-.78,1.04-1.03,1.75l-4.35-5.61c-2.17.88-5.98-4.19-7.67-3.08l1.94,1c-3.64.12.31,6.39-1.71,8.46,4.1-.17,4.65,8.05,11.08,8.18.6,1.16-1.35.17-1.23,1.07,1.81-.21,3.27.53,5.38,2.73l-.45.05c7.01,4.67,9.24,7.76,16.48,13.92l.25-1.56c1.55,1.33,1.64,1.94,2.21,2.78,3.15-.41-4.59-3.4-1.48-4.11.52,3.92,11.66,8.33,11.27,12.06,2.55,1.81.2-1.87,2.75-.06l.17,1.2,1.31-.48c1.57,1.33,1.78,2.84,1.41,3.5-.36-.36-1.28-.64-1.75-.9,1.57,2.4,6.36,4.01,6.92,4.81l-2.16-2.17c7.49,4.2,15.42,11.11,23.3,14.23l-.15-.91c5.94,2.48,3.76,3.47,9.89,6.8h-.3c1.53.2,3.26.94,4.81,2.04-1.89-.31,1.93,3.09-.47,2.56,6.53,2.59,3.45.96,8.61,1.29l.29,1.5c1.83-.02,2.24-.42,5.36,1.13-2.95-.66,1.04,2.61-2.37,2.03,1.27,1.47,2.58,2.43,3.83,3.12,1.29.67,2.58,1.04,3.69,1.38,1.12.34,2.11.65,2.91,1.18.77.48,1.36,1.18,1.69,2.35,2.17-.63.97-1.71-.52-2.61-1.49-.89-3.37-1.76-2.36-1.57-.47-.83.42-1,1.65-.8,1.23.22,2.8.7,3.74,1.36,2.03,1.1,1.71,5.28,6.92,7.88-.51-.28-.65-.09-1.16-.36,1.58,1.69,4.29.99,6.09,3.34,2.18-.98,3.05,1.67,4.51-.26l-5.01-1.93c2.98.82,6.77-.38,10.62,3.06-.56.25-2.17.15-3.24,0,.99,1.28,2.72.85,3.75,2.17-1.45,1.93-6.05-2.45-9.76-2.31.94,1.61,6.27,1.23,3.65,2.8,3.57-1.88,4.95,2.97,9.62,2.47l-.87,1.16c.66.08,2.12.05,3.14.59l-2.69.73c3.57,0,4.93,3.99,8.08,4.55-5.82-2.78-.55-2.17-2.54-4.3,7.96,1.76,2.47,5.34,10.79,8.6-1.18-.34-3.71-2.74-1.73-2.51,1.39,1.01,3.18,2.45,3.81,3.57,5.47,2.24-.19-1.71,2.45-1.43,1.08,2.42,2.92.59,5.49,1.19l-.59,1.32c5.7,3.68,2.88-1.99,7.9,1.55l-3.16.77,3.09.84-1.28,1.23c3.63.31,4.46,1.05,7.35,2.85-.3-1.25,1.47-2.22,4.21-1.07,1.51,1.6-1.6.8,2.35,2.31-1.23.45-2.65,1.06-3.79-.89-.36.36-1.23.45-1.6.8,1.6,1.79,4.95,2.42,6.36,3.03-.52-.29-1.13-.64-1.38-.98l6.4.61c.67.87-.2.98-1.07,1.08,1.21.34,2.26.06,3.99.65-.9.9-1.27,2.06-3.87,1.56l5.9,1.07c.16.62,2.22,2.46,1.35,2.57,2.72,1.93,8.22.94,11.87,3.37.29-.13.79-.16,1.7.02,3.63,1.78,6.47,4.39,11.53,4.58l1.8,2.94c3.68.88-2.51-3.79,3.61-2.32,4.37.91.93,2.26,2.18,3.34,2.45-.26,6.77-1.02,10.03,1.96-1.4-.08-2.29-.72-3.53-1Zm44.58,12.78c-.94.06-2.92.51-3.34-.49,1.42-1.34,1.97-.37,3.34.49Zm69.21,10.98c-.73.36-1.7-.05-2.75-.79.85.03,1.77.25,2.75.79Zm193.56,4.63s-.06.04-.09.07c-1.97-.57-1.27-.34.09-.07Zm4.09.64c.41-.2.38-.4.21-.6-.28.37-1.2.39-2.25.28.29.38.82.64,2.04.32Zm-423.17-93.04l.54.7c-1.8-.45-1.18-.55-.54-.7Z"/>
        <path class="cls-7" d="m614.69,793.88c-.21-.28-.23-.56-.24-.84-.39.18-.44.45.24.84Z"/>
        <path class="cls-7" d="m481.83,760.09s-.08-.04-.12-.07c-.1.05-.18.12-.23.19l.35-.12Z"/>
        <path class="cls-7" d="m756.64,809.65c-.84-.25-1.3-.53-1.6-.82-.06.35.31.67,1.6.82Z"/>
        <path class="cls-7" d="m842.12,795.8l-2.61.43c1.26-.1,1.72.21,2.37.43-.06-.34-.57-.82.24-.86Z"/>
        <path class="cls-7" d="m865.13,804.16c.38-.19.81-.05,1.19-.25l-.13-.67c-1.63.11-2.76.7-1.06.91Z"/>
        <path class="cls-7" d="m844.64,800.56c.23,1.21,1.87.77,3.71.51-.11,0-.21.02-.33,0,.5-1.71-1.44-1.11-3.38-.51Z"/>
        <path class="cls-7" d="m848.78,801.02c.57-.07,1.14-.11,1.7-.06.2-.69-.69-.13-1.7.06Z"/>
        <path class="cls-7" d="m825.67,797.77c.87.3.53-1.57,1.03-1.08.96-1.53-5.78,1.9-1.03,1.08Z"/>
        <polygon class="cls-7" points="846.22 804.54 845.53 803.05 844.52 804.29 846.22 804.54"/>
        <path class="cls-7" d="m831.65,803.72l2.95.36c-.05-.25.32-.41.78-.53-1.81-.02-3.8-.28-3.73.17Z"/>
        <path class="cls-7" d="m835.38,803.55c.94.01,1.84-.04,2.36-.29-.51.03-1.61.1-2.36.29Z"/>
        <polygon class="cls-7" points="842.2 805.07 841.33 804.78 839.24 804.71 842.2 805.07"/>
        <path class="cls-7" d="m800.01,803.49l-3.22.42c-.33.51.54.83,1.74.63.77-.36,1.97-.55,1.48-1.05Z"/>
        <path class="cls-7" d="m809.72,807.62c-.87-.31-.93-.65-1.42-1.15l-.11,1.86,1.52-.72Z"/>
        <path class="cls-7" d="m800.32,808.04c-.32.52-4.69,1.47-.61,1.37.33-.51,3.56-.93.61-1.37Z"/>
        <polygon class="cls-7" points="751.89 804.32 752.71 804.33 752.73 801.28 751.89 804.32"/>
        <path class="cls-7" d="m708.66,808.92c3.76,1.07,1.06-1.8,4.44-.58.95-.64-2.76-.99-1.79-1.53-2.36.56-3.54.02-2.65,2.12Z"/>
        <path class="cls-7" d="m711.3,806.8c.38-.09.78-.2,1.21-.36-.68.13-1.01.25-1.21.36Z"/>
        <polygon class="cls-7" points="274.69 621.88 273.09 619.93 273.76 621.69 274.69 621.88"/>
        <path class="cls-7" d="m269.56,620.95l.68-1.91-2.22.56c.49.26,1.46.75,1.54,1.35Z"/>
        <path class="cls-7" d="m559.36,787.83l.3-.41c-.25-.58-.81-.75-1.92-1.1l1.62,1.51Z"/>
        <polygon class="cls-7" points="527.15 777.26 527.69 777.48 527.19 775.47 527.15 777.26"/>
        <path class="cls-7" d="m499.61,770.18c1.06.48,2.48.55,3.55,1.01-2.49-.54-3.09-3.18-3.55-1.01Z"/>
      </g>
      <g>
        <path class="cls-7" d="m536.93,398.74c.7-.28-.16-1.24-.17-1.49-.94.88.36,1.76.17,1.49Z"/>
        <polygon class="cls-7" points="527.91 407.49 527.82 406.94 526.97 408.96 527.91 407.49"/>
        <path class="cls-7" d="m518.35,413.67c2.09,1.19,3.19-2.63,5.35-3.05l.55.23-.16-1.94c-1.96,1.53-3.97,4.28-5.74,4.76Z"/>
        <path class="cls-7" d="m510.68,413.29c.79.47-.68,1.34,1.33-.6-.17,0-.23-.02-.34-.03-.2.15-.49.33-.99.63Z"/>
        <path class="cls-7" d="m511.67,412.66c.97-.73-1.06-.13,0,0h0Z"/>
        <path class="cls-7" d="m507.39,416.31l.86-1.54c-.56-.21-1.78.54-1.56-.06-1.1,1.29-.53,1.49.69,1.6Z"/>
        <path class="cls-7" d="m507.08,418.46l.48-.74c-.24-.08-.46-.01-.48.74Z"/>
        <path class="cls-7" d="m508.6,416.16l-1.03,1.56c.39.15.81.7.51-.66.25.6.18-.1.52-.9Z"/>
        <path class="cls-7" d="m509.59,415.85c1-.14,2.1-.57,1.23.96,2.29-2.01,1.07-2.99-1.23-.96Z"/>
        <path class="cls-7" d="m519.11,415.83l1.32-.14.44-1.17c-.22.58-2.2.79-1.77,1.3Z"/>
        <path class="cls-7" d="m498.73,421.34c.2.42,1.16.64,1.61,1.03l.62-1.13c-.67.12-1.75.59-2.23.1Z"/>
        <path class="cls-7" d="m500.34,422.37l-.92,1.69c1.3-.88,1.3-1.35.92-1.69Z"/>
        <polygon class="cls-7" points="508.25 420.55 509.62 417.54 507.82 420.89 508.25 420.55"/>
        <polygon class="cls-7" points="493.35 425.41 493.48 423.95 493.08 426.33 493.35 425.41"/>
        <path class="cls-7" d="m489.99,428.37c.03-1.15-1.72-.51-1.45-1.42-.85.89-1.19,2.13-1.49,3.23.53-.91,1.42-1.51,2.94-1.81Z"/>
        <path class="cls-7" d="m486.46,431.93c.25-.48.41-1.09.59-1.75-.28.49-.5,1.03-.59,1.75Z"/>
        <path class="cls-7" d="m496.91,425.7c-.28-.13-.93-.54-1.9-.18l1.34.59c.17-.12.36-.26.56-.4Z"/>
        <path class="cls-7" d="m496.39,426.12l-.04-.02c-.61.43-1.04.73-1.22.86.16-.11.53-.38,1.26-.85Z"/>
        <path class="cls-7" d="m497.05,425.59c-.05.04-.09.06-.14.1.13.06.19.07.14-.1Z"/>
        <path class="cls-7" d="m503.86,422.31c-.39,1.2-1.62,3.1.68,2.73.06-1.15-1.26-.93-.68-2.73Z"/>
        <path class="cls-7" d="m498.71,426.34l1.65-.89c-.23-.25-.8-.43-.61-1.03l-1.04,1.92Z"/>
        <polygon class="cls-7" points="498.24 427.21 498.71 426.34 498.1 426.67 498.24 427.21"/>
        <path class="cls-7" d="m489.71,430.84c-.27.94-.93,1.53-1.65,2.22.99-.48,1.93-1.06,2.74-1.72-.14-.4-.24-1.25-1.1-.5Z"/>
        <path class="cls-7" d="m493.02,428.62c-.03.06-.07.11-.09.17.15.02.24-.01.09-.17Z"/>
        <path class="cls-7" d="m480.61,439.39c.09.03.18.05.27.07-.04-.06-.08-.12-.12-.19l-.16.12Z"/>
        <path class="cls-7" d="m491.1,431.41c.78-.31.95-.85,1.06-1.45-.38.48-.83.94-1.35,1.38.06.18.13.28.29.07Z"/>
        <path class="cls-7" d="m484.76,434.16c.49-.07,1-.2,1.51-.36-.57-.05-1.61.01-1.51.36Z"/>
        <path class="cls-7" d="m492.5,428.68s.03-.08.06-.12c-.38-.05-.27.03-.06.12Z"/>
        <path class="cls-7" d="m492.5,428.68c-.21.4-.26.85-.34,1.28.32-.38.58-.78.77-1.17-.13,0-.3-.05-.43-.11Z"/>
        <path class="cls-7" d="m483.84,447.52c-.69-.98.12-3.2,2.33-3.39.75-1.81-2.67-4.03-5.29-4.67.3.43.6.77-.31,2.52.89.04,4.07-1.5,3.6.31-1.43,2.02-1.77.97-3.06,1.28,1.72.45-.85,3.66.99,4.93l1.05-1.97c.25.23.05,1.14.68.98Z"/>
        <path class="cls-7" d="m483.63,437.29l.48-.6c-.79.4-1.57.44-3.04.48-.58,1.26-.49,1.76-.3,2.12l2.94-2.29-.08.3Z"/>
        <path class="cls-7" d="m486.69,434.47c.38,1.38-.64,2.97,1.1,3.32,1.62-1.5.48-1.83,1.13-3.12-2.51,2.56.32-1.22-2.12-.11.4-.62.83-1.1,1.26-1.51-.6.28-1.19.55-1.8.74.05,0,.08,0,.11,0h.01s.01,0,.01,0c.22.02.32.07.13.11,0,.02-.03.05-.04.07.1.15.15.32.19.48-.96.47-.34-.15-.19-.48-.03-.06-.05-.12-.09-.18,0,0-.01,0-.02,0l-2.28,2.87c.69-.36,1.39-1,2.58-2.21Z"/>
        <path class="cls-7" d="m504.71,428.41c-.16-.02-.21-.1-.27-.17-.09.26-.09.4.27.17Z"/>
        <path class="cls-7" d="m503.08,428.67c.1-.3-.05-.84.7-1.24.81-.13.37.5.66.81.19-.58.84-1.81-.79-1.35l-.09.29c-1.4.51-3.85.35-3.76.06,1.04.67,1.84,1.1,3.29,1.43Z"/>
        <path class="cls-7" d="m495.01,431.79l-1.91,2.36,1.88-.08-.48-.47c1.47-.85.67-1.27.51-1.8Z"/>
        <path class="cls-7" d="m479.93,439.13l-.59-1.29-.04,2.59c.2-.44.41-.88.63-1.3Z"/>
        <polygon class="cls-7" points="477.13 441.84 476.45 440.86 476.16 442.08 477.13 441.84"/>
        <path class="cls-7" d="m370.85,627.02l.07.91c.02-.41,0-.69-.07-.91Z"/>
        <path class="cls-7" d="m372.9,621.26l-.5-.33c.21.37.4.56.5.33Z"/>
        <path class="cls-7" d="m413.65,512.79c-1.64.39-3.88.57-2.7,1.21l1.29.43c.33-.86.85-1.34,1.41-1.65Z"/>
        <path class="cls-7" d="m386.53,572.01c.17-.05.34-.1.52-.15-.26-.48-.5-.92-.72-1.32.06.44.13.95.2,1.47Z"/>
        <path class="cls-7" d="m390.93,575.24l-1.49,1.08c.43-.2.92-.54,1.49-1.08Z"/>
        <path class="cls-7" d="m363.56,659.48l1.09,1.22c.31-1.49-.48-.97-1.09-1.22Z"/>
        <path class="cls-7" d="m449.05,470.02c-1.12.47-1.86.97-2.43,1.5,1.45-.48,2.99-.51,2.43-1.5Z"/>
        <path class="cls-7" d="m358.5,620.34c.05.58.22.88.5.96-.03-.59-.16-.97-.5-.96Z"/>
        <path class="cls-7" d="m444.48,473.89c.23-.06.41-.15.62-.23.38-.74.8-1.46,1.53-2.14-1.07.35-2.09.96-2.15,2.36Z"/>
        <path class="cls-7" d="m352.56,780.4c-.06.09-.08.2-.14.28.18.02.18-.1.14-.28Z"/>
        <path class="cls-7" d="m343.09,817.53c-.14-.35-.24-.93-.34-1.48-.04.28.04.73.34,1.48Z"/>
        <path class="cls-7" d="m465.25,452.06c.54-.63,0-.19,0,0h0Z"/>
        <path class="cls-7" d="m471.7,453.04c-.03.23,0,.45.2.68-.17-.27-.22-.5-.2-.68Z"/>
        <path class="cls-7" d="m445.14,485.35s-.03.03-.05.05c.35-.01.29-.01.05-.05Z"/>
        <path class="cls-7" d="m466.56,451.63c-.34.1-.69.25-1.03.45.19-.04.51-.17,1.03-.45Z"/>
        <path class="cls-7" d="m466.01,451.3c.25-.15.43-.28.61-.4-.07-.23-.23-.26-.61.4Z"/>
        <path class="cls-7" d="m464.46,452.9c.33-.34.69-.6,1.06-.82-.18.05-.28.04-.28-.02-.16.18-.39.44-.79.84Z"/>
        <path class="cls-7" d="m350.68,714.9s-.08.11-.14.16c.47.86.42.49.14-.16Z"/>
        <path class="cls-7" d="m412.91,537.84s0-.07,0-.11c-.03.02-.07.05-.1.07l.11.04Z"/>
        <path class="cls-7" d="m412.17,540.77c-.71-1.9-.16-2.38.63-2.97l-3.67-1.24,3.04,4.21Z"/>
        <path class="cls-7" d="m366.99,641.13l1.67-1.6c1.2,2.83.09,4.29,2.18,2.95-3.83-1.36,1.65-7.5-2.1-8.92l1.22-1c-.15.35.06.48-.09.82,2.63-1.85-2.24-2.68-.69-5.67.65-1.01,1.45-1.59,1.67-.69-.06-.92-.13-1.84-.16-2.76.32-.68.93-.28.61.39l.98-3.8.1.07c-.42-.74-.93-2.27-1.12-3,.88-.75.24.62.8.55l-.21-2.39c1.28-.48,1.65,1.58,1.02,2.94,4.51-.53-.42-2.07,3.38-5.33l-.24,2.09c2.64-.42,2.42-2.2,4.58-3.82-.89.22-5.04,3.01-5.15.46.52-.51.97-1.27.66-2.76,1.36.51,1.46-.77,1.94-2.25l1.75.81c.1-1.75-.84-1.99-1.27-3.23.89-1.66,2.41-1.45,3.74-1.38,1.42-2.64-2.99.99-1.97-2.41.81-1.01,1.21-1.99,1.41-3.12.22-1.13.27-2.4.35-4,1.32-1.33.95.75,1.71.4l-.77-2.04c.19-.33.57-.03.76.13,0-1.44-1.71-.88-1.34-2.98-.84-.69.28-1.35,1.5-2.22,1.23-.87,2.53-1.97,2-3.63.76-.33.93.78,1.68.93.09-3.83.25-3.19-.4-6.72l2.24-1.62c-2.11.96-2.59-1.85-2.91-4.31-.91.26-1.71.48-2.14.68l.57-3.38c.46-.21.89.39,1.36,1.23-.04-.27-.08-.53-.14-.74,1.16-.71,1.87.34,2.44,1.57-.52.18-1.05.34-1.58.5.67,1.25,1.49,2.49,2.56,2.85-.1-.29-.09-.73.02-1.18.19.33.38.58.59.58.23,0,0-.5-.19-1.19l2.23.33-.67-.55c1.04-1.04,2.04-2.09,3.11-3.11-.46-3.63-2.03-7.48-.44-12.14.77,1.81,2.11,1.48,3.69,2.44-2.37.17-1.04,3.66-2.58,5.63.8-1.04,1.44-.36,1.56.07l.53-4.74c1.27.82,1.45-.26,2.58-.95-3.05-.72-.1-3.84,0-5.86.93.41,1.6,1.3.3,3.08,3.16-.96-1.49-4.48,1.36-5.58-.25.48-.52.65-.19,1.09-.17-1.55,2.06-3.8,2.43-2.73l-.26.47c2.15-2.86,5.63-9.22,3.82-11.02.3.15,2.35,2.04,2.67,2.49-1.28-3.3-2.54-6.64-3.77-10.02,1.53,1.67,7.06,2.72,6.51,5.87.72-.54,1.58-1.22,1.91-3.14-.58.3-3.43-.53-3.17-1.31,3.24-.46,1.93-.54,5.15-1.59-.88.45-3.19-2.26-2.32-3.34.31.47,2.87,1.81,2.89,2.42l-.88-4.72c.02,1.05,2.27,1.74,3.48,1.66-.37-.04.05-.64.6-1.35.56-.69,1.25-1.49,1.38-1.96l-1.48.72c2.64-2.83-1.67-5.83.71-8.87.29.79,2.81,3.44,4.28,2.12-.91-1.74-4.35-8.08-3.34-11.66l1.18.07.69-2.79c1.07,2.91,2.7,9.85,2.95,13.07,1.49-.68,1.18.37,2.39-1.4,1.2-.05.43,1.77.1,2.31l3.46-3.62c-1.75-1.04.67-4.27-.77-5.14l-1.59,5.61c-1.74-1.01-2.71-5.98-.23-8.6,1.2-.22,2.42,2.73,3,3.08-.27-.78,1.04-3.46,1.62-3.41l-.08,1.85c1.81-1.08-.11-4.19,2.87-4.86.61-.57,3.53-.29,2.7-1.14-2.64-.42-8.34-4.65-9.13-6.45.31-.13,4.51-2,5.98-2,2.26.1,2.02,4.31,3.95,4.4-.39-.39-.44-1.4-.41-1.78.91-.37,1.09,1.36,2.09-.24-1.37-1.55,2.56-2.83-.76-1.79.73-1.79,1.55-1.25,2.9-2.93-1.46-.33-2.15-4.39-1.36-6.18.32.42,1.11.55,1.47.6,1.32-1.37,2.47-2.29,3.61-3.19,1.15-.88,2.26-1.75,3.46-3.05.59.09,2.17-.76,2.33.37.07-.62-.12-1.43.57-2.27,2.71-.35-1.43,1.97,1.21,2.23-.77-.89.66-3.2,1.2-4.81-1.68-.93-2.7,2.38-3.19,4.03-1.85-1.68-2.04-5.54-.29-9.03,1.6-2.58,2.07.2,2.17-.42,4.16-3.69.08-6.54,4.68-8.53,2.45-.16,2.33,2.21,3.44,2.74-1.26,2.13-3.35,1.87-4.43,3.1.65-.3,1.28-.62,1.94-.91-.16.91-.96,2.36-1.91,2.66,2.05-.13,6.77-6.44,10.73-8.48.17-.91.73-2.21-.17-2.25l-.82,1.09c-1.81-.08.6-3.05-1.07-2.3.69-1.91,1.19-4.36,3.56-5.6l1.61,1.01c-.41-.36-1.97.35-2.11,1.26.23-1.33,4.54-.89,3.78-3.44-.74.08-1.46.19-2.18.29.69-1.94,1.11-4.88,3.19-6-1.99-.65-.25.51-2.89.02,2.82,1-4.43,3.87-.87,4.38-2.89-.66-2.81,1.22-5.85,1.2.47.39,1.36.31-.25,1.42.06.19.07.49.06.68-.05.03-.08.04-.13.06.05,0,.08-.01.13-.02,0,.12,0,.14.05,0,.52-.12,1.01-.15,1.35,0,.27,1.67-1.99,3.72-2.21,4.97-1.01.6-.15-.83-1.04-.86l-.34,1.86c-1.05-.86-3.72.55-2.37-1.92l-1.76,1.67c-1.55.47-3.16,1.65-3.62,2.91-1.03.6-.94,3.13-1.01,1.66l-2.03,3.33-.27-.21c-1.36,1.3-2.29,3.07-3.46,4.71-1.14,1.66-2.53,3.18-4.88,3.95-.6,1.17-1.18,2.4-2.87,3.72l-1.14-.46c-.76,1.49-4.08,2.92-3.62,4.25-1.75-.36-3.21,1.01-4.45,2.73-1.23,1.73-2.3,3.77-3.43,4.7l1.11,1.05c-1.31,1.46-2.2,3.17-3.22,5.48l1.14.72c-.43,2.33-4.08,3.63-6.02,6.33-.28-.5.36-1.07.97-1.35-4.85,1.3-3.26,8.01-7.2,9.54-.13,1.01-.64,1.45-1.28,1.76.05-.07.07-.15.07-.22-.07.07-.15.17-.23.29-.42.19-.87.36-1.3.6.48-.12.91-.25,1.19-.43-.38.58-.85,1.53-1.17,2.56l-1.43-.48c-.03.08-.07.13-.1.22-1.02.51.09,1.06,1.29,1.25-.11.56-.15,1.11-.07,1.61-2.38-.67-.93,2.63-3.59,2.13.61,1.26-2.14,4.79-.33,6.66-.3-.16-.59,0-.3-.46-.88.78-1.76,1.56-1.73,2.8l-1.8-.61c.21,1.14.47,2.3.71,3.44-1.75.65-2.64.83-3.01-1.2-.14,4.24-.91,2.93-.75,6.67l-.92-.76c-.56.95-.16,3.27-1.32,3.33-1.6.45-3.25,3.02-5.14,6.01-1.87,3-3.87,6.48-6.38,8.71,1.83.33,1.12.77.23,1.33-.87.57-1.91,1.26-.79,2.03-.9-.08-1.73.48-1.87-.77-.83,3.24-3.49,3.67-2.54,6.72-.91-.06-.74-1.18-1.33-1.12.03.31.14,1.24-.45,1.31-.59.06-.39-.74-.46-1.37-1.45,3.01.7,4.5,2.71,5.81-1.76.97-2.01,1.79-1.15,3.57-.96.16-2.13.66-1.45-1.29-.31.49-1.37,1.93-2.14,3.37-.76,1.45-1.19,2.91-.36,3.38-.59.11-.82,1.39-.75,1.76-1.22,2.28-1.47,2.42-2.4,4.78l.59-.5c1.65,1.87-.41,2.13-1,4.11l-.19-.15c-3.43,3.6-.09,2.17-3.72,5.63l1.42.34c2.64,1.6-3.26,3.06-3.21,6l1.13-.58c.43,1.75-5.47,2.19-6.39,3.45-.37.2-.22-.64-.22-1.13-3.12,2.96,1.56,1.17.93,4.03-1.14.13-2.16-1.58-3.04.18-.56.31-.3,1.93-.24,3.7.05,1.76-.08,3.66-1.42,4.6.93-.29,1.86-.57,1.97.89-.41,2.02-4.64,4.29-2.91,6.84-.29.18-.52.21-.7.16.12,1.7-.54,5.21.45,6.51-2.57-.05-2.79,2.46-2.77,4.82.01,2.36.12,4.53-2.08,3.9-.35,1.58-.74,3.15-1.07,4.74l-.42-.24c-1.05,2.94-.25,4.28.56,5.59-.48.62-.76.01-.98-.1-2.01,4.16-1.89,4.69-.45,8.87l-1.54.07c.31.59-.6,2.07-1.5,4-.86,1.92-1.63,4.3-1.18,6.62-.16-.07-.43-.22-.57-.6.85,5.17-6.19,11.03-1.13,13.7l.85,3.44c1.02-4.11,2.23.98,3.37-.59.08,1.68-2.23,3.98-2.21,1.93l.31-.27c-2.68-1.17-1.74,5.04-3.63,4.65-1.18,8.23-3.46,16.14-4.49,23.91l2.28-.68c-.15.9-.29,1.79-.39,2.69-.57.66-1.79.8-1.54-1.13-1.32.91.78,3.35,1.25,3.44-1.19,3.72-2.43-1.71-2.58-.55l.04,1.6.28-.34c.79,1.36,1.73,1.55,1.44,3.87-.56,1.44-1.41.65-1.54,1.23-.15-.02-.24.18-.13.89l-.46,3.42,1.84-1.25c.73,1.57-.35,3.21,1.74,1.76-3.24,2.11-1.74,12.7-2.77,14.07,1.13,2.17,1.09,4.27.89,6.86.37-.64,2.33-.97,2.05,1.25-4-.9-1.82,4.06-4.75,5.85.97-.8,1.06.8,1.25,2.28.23,1.49.57,2.85,1.92,1.58-.31,1.87-1.5.11-2.44,1.54,1.61,4.45-.97,9.87-.17,15.41.53.07,1.3-.89,2.13.26l-2.53,3.03c.31,1.09,3.07.86,1.34,2.94.43-.31,1.07-.76,1.28-.04-.47,2.73-.48,5.48-.3,8.23.16,2.75.67,5.5,1.02,8.25.76,5.52,1.4,11.02-.19,16.88.8-1.64,1.04-.66,1.24.47.13-.77,1.29-.18,1.98-.43l-1.21,4.9c2.09.49,1.02,4.91,3.01,5.03l-.63-1.39c2.55,1.46,4.39-3.61,7.28-3.81-1.46-.8-.73-2.36-.19-4.02.53-1.66.96-3.45-1.08-4.91.47-.84,1.01.52,1.61.02-1.34-.69-1.75-1.71-1.46-3.73l.33.18c-.47-2.72-.47-4.71-.34-6.79.14-2.08.48-4.27.59-7.38l-1.37.58c.07-1.34.49-1.66.79-2.31-2.29-1.35.22,3.74-2.28,2.55,2.66-1.99-.64-9.43,2.56-10.82-.11-2.04-1.6.69-1.72-1.35l.85-.59-1.18-.46c.13-1.36,1.22-2.09,1.97-2.17-.08.33.25.91.32,1.26.98-1.78-.54-4.88-.22-5.5l-.47,1.99c-.5-2.78-.61-5.88-.65-8.97-.07-3.08-.26-6.14-1.19-8.85l-.67.41c-1.28-4.15.77-3.32.25-7.87l.16.17c-.65-.92-.96-2.15-.86-3.4.76,1.17,1.57-2.12,2.41-.6-1.23-4.52-1.05-2.24-3.39-5.3l1.14-.65c-.96-1.05-1.48-1.16-1.66-3.46.86,1.91,1.76-1.38,2.92.77,2.66-4.63-2.11-7.22,1.55-9.19-2.97-2.39-1.91,4.02-2.51,2.76-1.05.98-2.21-1.95-1.83-3.44.19-1.53,4.14-2.34,4.38-6.15-.04.38.19.42.14.8.9-1.37-.84-2.89.57-4.53-1.78-1.14.29-2.27-2.06-2.76l.27,3.56c-.45-2.04-3.11-4.17-1.45-7.33.44.3.97,1.34,1.28,2.04.76-.89-.29-1.89.54-2.81,1.18.26,1.15,1.33,1.11,2.63-.04,1.3-.18,2.83.64,3.97,1.08-.93-1.39-4.18,1.08-2.87-3.17-1.85.78-3.7-1.42-6.53l1.4.32c-.18-.43-.75-1.35-.63-2.09l1.68,1.55c-1.33-2.25,1.82-3.86,1.19-5.95-.42,4.18-1.81.74-3.04,2.39-1.3-5.4,4.01-2.55,4.02-8.38.06.8-1.19,2.82-1.72,1.52.39-1.07,1.18-2.44,2.01-3.01.26-3.84-1.54.39-2.17-1.35,1.91-1.07-.43-1.97-.73-3.73l1.43.19c1.55-4.22-2.82-1.59-1.14-5.35l1.74,1.96-.22-2.12,1.57.67c-.89-2.4-.47-3.05.3-5.15-1.08.34-2.57-.7-2.25-2.63,1.08-1.17,1.23.96,1.51-1.8.78.77,1.78,1.62.25,2.59.44.2.79.75,1.22.95,1.23-1.24.86-3.49,1.02-4.47-.12.37-.28.81-.52,1l-1.27-4.28c.65-.53.99.04,1.32.6-.01-.82-.57-1.49-.48-2.69,1.1.51,2.31.66,2.56,2.41l-.61-3.97c.55-.16,1.73-1.66,2.06-1.09,1.05-1.93-1.35-5.53.16-8.02-.19-.19-.35-.51-.39-1.12.82-2.49,2.65-4.4,1.86-7.75l2.47-1.19c.12-2.45-3.15,1.66-2.95-2.44.04-2.94,2-.58,2.81-1.4-.72-1.63-2.08-4.58.28-6.64.15.94-.34,1.51-.41,2.33Zm8.42-28.66c.08.65.54,2.06-.41,2.15-1.32-1.19-.39-1.4.41-2.15Zm15.63-43.16c.23.61-.29,1.1-1.12,1.53.15-.55.48-1.08,1.12-1.53Zm68.6-110.07s0,.06,0,.09c-1.35.55-.86.37,0-.09Zm2.42-1.52c.06-.34-.1-.47-.32-.53.12.4-.31.86-.88,1.28.41.13.85.06,1.21-.75Zm-121.76,265l.42-.51c.32,1.24-.03.88-.42.51Z"/>
        <path class="cls-7" d="m390.42,574.85c-.29.04-.55-.04-.82-.13.11.31.36.45.82.13Z"/>
        <path class="cls-7" d="m363.35,659.25s-.02.06-.03.08c.07.07.15.11.24.14l-.2-.23Z"/>
        <path class="cls-7" d="m442.48,497.31c-.51.3-.92.37-1.26.35.25.25.65.24,1.26-.35Z"/>
        <path class="cls-7" d="m471.02,445.7l-1.05,1.51c.58-.65,1.02-.63,1.49-.76-.26-.22-.84-.35-.45-.75Z"/>
        <path class="cls-7" d="m488.49,442.21c.08-.3.4-.37.48-.67l-.49-.47c-.8.74-1.03,1.65.01,1.14Z"/>
        <path class="cls-7" d="m475.5,448.14c.93.8,1.47-.24,2.24-1.24-.05.05-.1.11-.16.15-.87-1.51-1.48-.2-2.08,1.09Z"/>
        <path class="cls-7" d="m477.92,446.68c.25-.3.51-.58.83-.79-.35-.61-.44.21-.83.79Z"/>
        <path class="cls-7" d="m463.99,454.65c.64-.19-.82-1.38-.24-1.26-.61-1.58-1.5,4.13.24,1.26Z"/>
        <polygon class="cls-7" points="478.94 450.43 477.6 449.62 477.91 450.97 478.94 450.43"/>
        <path class="cls-7" d="m471.09,456.26l1.72-1.05c-.19-.16-.11-.44.03-.74-.92.8-2.09,1.5-1.75,1.79Z"/>
        <path class="cls-7" d="m472.83,454.47c.48-.41.89-.85.98-1.27-.24.25-.74.79-.98,1.27Z"/>
        <polygon class="cls-7" points="477.25 452.56 476.62 452.73 475.54 453.6 477.25 452.56"/>
        <path class="cls-7" d="m455.95,471.06l-1.17,1.85c.23.51.86.3,1.26-.41.09-.62.5-1.33-.09-1.43Z"/>
        <path class="cls-7" d="m463.39,469.23c-.62.2-.89,0-1.47-.12l1.29,1.34.18-1.23Z"/>
        <path class="cls-7" d="m459.42,474.02c.23.51-1.05,3.24.72,1.22-.22-.51.94-2.34-.72-1.22Z"/>
        <polygon class="cls-7" points="436.44 496.61 436.76 496.17 434.35 494.3 436.44 496.61"/>
        <path class="cls-7" d="m425.18,523.44c2.04-1.6-1.19-1.58.86-2.89-.24-.9-1.68,1.07-1.83.21-.26,1.68-1.07,2.07.97,2.67Z"/>
        <path class="cls-7" d="m424.21,520.77c.04-.27.07-.56.07-.9-.1.47-.1.72-.07.9Z"/>
        <path class="cls-7" d="m342.52,823.89l-.31,1.8c.26-.44.53-.86.8-1.28l-.49-.52Z"/>
        <path class="cls-7" d="m345.38,826.67l-1.82.81,1.96.69c-.18-.4-.52-1.14-.14-1.5Z"/>
        <path class="cls-7" d="m380.64,609.74l-.39-.28c-.56.04-.73.38-1.07,1.05l1.46-.76Z"/>
        <polygon class="cls-7" points="372.06 629.52 372.21 629.18 370.32 629.3 372.06 629.52"/>
        <path class="cls-7" d="m369.21,647.42c.25-.69.07-1.62.32-2.32-.08,1.62-2.5,1.96-.32,2.32Z"/>
      </g>
      <g>
        <path class="cls-7" d="m761.03,539.63c.93.02.48-1.2.6-1.44-1.52.42-.53,1.76-.6,1.44Z"/>
        <polygon class="cls-7" points="746.12 543.97 746.34 543.43 744.23 544.92 746.12 543.97"/>
        <path class="cls-7" d="m731.94,545.48c1.58,1.98,5.1-.91,7.71-.43l.47.44.96-1.83c-3.04.59-6.9,2.18-9.13,1.82Z"/>
        <path class="cls-7" d="m723.85,541.75c.57.77-1.55.9,1.8.06-.18-.07-.24-.12-.34-.17-.31.05-.73.09-1.45.12Z"/>
        <path class="cls-7" d="m725.3,541.63c1.49-.23-1.06-.58,0,0h0Z"/>
        <path class="cls-7" d="m718.45,542.93l1.88-.98c-.47-.44-2.24-.34-1.63-.77-1.97.65-1.5,1.08-.25,1.75Z"/>
        <path class="cls-7" d="m716.77,544.71l.98-.44c-.2-.18-.48-.22-.98.44Z"/>
        <path class="cls-7" d="m719.84,543.35l-2.08.92c.33.31.44.99.96-.36-.1.65.25,0,1.12-.56Z"/>
        <path class="cls-7" d="m721.1,543.53c1.16.33,2.62.45.73,1.42,3.73-.75,3-2.17-.73-1.42Z"/>
        <path class="cls-7" d="m731.47,547.76l1.54.46,1.19-.85c-.6.42-2.9-.26-2.74.4Z"/>
        <path class="cls-7" d="m706.04,543.38c-.06.47.82,1.12,1.04,1.68l1.39-.71c-.79-.21-2.24-.31-2.43-.97Z"/>
        <path class="cls-7" d="m707.08,545.05l-2.07,1.06c1.95-.16,2.26-.58,2.07-1.06Z"/>
        <polygon class="cls-7" points="716.71 547.11 720.08 545.05 716.03 547.22 716.71 547.11"/>
        <polygon class="cls-7" points="697.72 544.44 698.81 543.22 696.83 545.1 697.72 544.44"/>
        <path class="cls-7" d="m692.24,545.38c.79-1-1.46-1.28-.57-1.95-1.48.37-2.65,1.3-3.7,2.13,1.17-.55,2.49-.64,4.27-.17Z"/>
        <path class="cls-7" d="m686.18,546.81c.58-.29,1.16-.76,1.79-1.25-.62.29-1.22.67-1.79,1.25Z"/>
        <path class="cls-7" d="m701.28,546.38c-.2-.25-.62-.92-1.88-1.06l1.03,1.15c.26-.03.56-.06.86-.1Z"/>
        <path class="cls-7" d="m700.46,546.52l-.04-.04c-.93.09-1.58.16-1.85.18.24-.02.81-.06,1.89-.15Z"/>
        <path class="cls-7" d="m701.5,546.36c-.08,0-.14.01-.22.02.1.11.15.15.22-.02Z"/>
        <path class="cls-7" d="m710.88,546.68c-1.19.87-3.74,1.97-1.03,2.73.8-.99-.75-1.42,1.03-2.73Z"/>
        <path class="cls-7" d="m702.77,547.81h2.34c-.09-.34-.57-.78.02-1.21l-2.36,1.21Z"/>
        <polygon class="cls-7" points="701.69 548.36 702.77 547.81 701.9 547.81 701.69 548.36"/>
        <path class="cls-7" d="m690.3,547.43c-.92.7-2,.9-3.22,1.16,1.35.06,2.74,0,4.03-.19.13-.43.59-1.22-.81-.97Z"/>
        <path class="cls-7" d="m695.25,547.09c-.06.04-.15.07-.21.1.15.09.27.11.21-.1Z"/>
        <path class="cls-7" d="m674.98,550.41c.08.07.15.13.23.2,0-.08,0-.14.01-.23l-.24.03Z"/>
        <path class="cls-7" d="m691.37,548.6c1.03.1,1.57-.29,2.08-.77-.72.23-1.5.43-2.34.56-.06.19-.05.31.25.2Z"/>
        <path class="cls-7" d="m682.88,547.9c.56.19,1.17.32,1.82.44-.56-.33-1.69-.8-1.82-.44Z"/>
        <path class="cls-7" d="m694.66,546.88s.09-.06.14-.08c-.36-.23-.3-.1-.14.08Z"/>
        <path class="cls-7" d="m694.66,546.88c-.48.25-.84.62-1.21.96.59-.18,1.13-.4,1.59-.65-.14-.07-.28-.19-.38-.31Z"/>
        <path class="cls-7" d="m672.61,559.1c-.01-1.2,2.4-2.69,4.83-1.78,2.06-1.22.04-4.86-2.23-6.72.01.52.08,1-2.08,2.04.9.52,5.27.71,3.52,2.08-2.91,1.07-2.52-.03-4.08-.43,1.47,1.26-3.48,2.74-2.48,4.78l2.5-1.18c.1.33-.76,1.01.01,1.2Z"/>
        <path class="cls-7" d="m679.56,550.06l.91-.29c-1.1-.04-1.93-.4-3.48-1.1-1.47.82-1.73,1.3-1.77,1.71l4.63-.55-.29.22Z"/>
        <path class="cls-7" d="m684.68,549.14c-.54,1.39-2.71,2.27-1.12,3.45,2.73-.5,1.76-1.36,3.32-2.15-4.38.97,1.17-.91-2.14-1.15.84-.35,1.61-.53,2.35-.69-.82-.04-1.62-.12-2.38-.25.04.03.08.04.11.06h.02s0,.01,0,.01c.21.13.29.22.06.16-.01.02-.07.03-.09.04,0,.18-.06.35-.13.51-1.32-.07-.25-.3.13-.51,0-.06.03-.13.03-.2,0,0-.01-.01-.02-.01l-4.34,1.36c.97.04,2.14-.17,4.2-.63Z"/>
        <path class="cls-7" d="m707.84,552.47c-.15-.1-.16-.19-.18-.28-.27.19-.36.32.18.28Z"/>
        <path class="cls-7" d="m705.91,551.94c.3-.22.5-.77,1.57-.78.96.27.08.61.18,1.03.59-.42,2.09-1.21.03-1.57l-.29.22c-1.84-.21-4.35-1.5-4.06-1.72.68,1.08,1.24,1.85,2.58,2.82Z"/>
        <path class="cls-7" d="m695.23,550.84l-3.6,1.15,2.04.84-.19-.65c2.14-.04,1.57-.79,1.76-1.34Z"/>
        <polygon class="cls-7" points="674.46 549.84 674.74 548.41 672.9 550.65 674.46 549.84"/>
        <polygon class="cls-7" points="669.68 550.76 669.67 549.55 668.52 550.47 669.68 550.76"/>
        <path class="cls-7" d="m429.71,664.84l-.33,1.03c.2-.45.29-.77.33-1.03Z"/>
        <path class="cls-7" d="m434.45,659.11l-.32-.52c.02.47.11.74.32.52Z"/>
        <path class="cls-7" d="m552.97,577.16c-1.87-.6-4.11-1.68-3.52-.46l.86,1.09c1-.57,1.88-.68,2.66-.63Z"/>
        <path class="cls-7" d="m480.2,615.29c.19.04.4.08.6.13.13-.58.24-1.12.35-1.6-.29.45-.61.95-.95,1.48Z"/>
        <path class="cls-7" d="m481.83,620.54l-2.2.28c.55.03,1.26-.06,2.2-.28Z"/>
        <path class="cls-7" d="m414.57,701.17c.35.46.71.92,1.09,1.38.32-1.75-.47-1.11-1.09-1.38Z"/>
        <path class="cls-7" d="m620.74,560.23c-1.46-.22-2.58-.19-3.54-.05,1.79.38,3.33,1.2,3.54.05Z"/>
        <path class="cls-7" d="m420.69,653.94c-.25.7-.23,1.1.01,1.26.27-.7.33-1.18-.01-1.26Z"/>
        <path class="cls-7" d="m613.29,561.02c.27.08.51.09.78.15.94-.43,1.9-.81,3.13-.99-1.32-.29-2.78-.32-3.91.84Z"/>
        <path class="cls-7" d="m468.18,835.27c.03.12.1.24.11.36.15-.09.06-.21-.11-.36Z"/>
        <path class="cls-7" d="m490.71,876.96c-.39-.25-.94-.75-1.47-1.21.19.3.62.68,1.47,1.21Z"/>
        <path class="cls-7" d="m650.28,553.46c1-.26.14-.17,0,0h0Z"/>
        <path class="cls-7" d="m656.1,557.66c-.19.18-.32.39-.3.69.03-.32.14-.54.3-.69Z"/>
        <path class="cls-7" d="m605.05,571.17s-.05,0-.09.02c.35.18.29.14.09-.02Z"/>
        <path class="cls-7" d="m651.91,553.77c-.41-.09-.87-.14-1.37-.15.23.06.65.12,1.37.15Z"/>
        <path class="cls-7" d="m651.6,553.2c.36-.01.64-.02.91-.03.09-.24-.05-.35-.91.03Z"/>
        <path class="cls-7" d="m648.87,553.78c.58-.12,1.13-.16,1.67-.16-.22-.05-.31-.11-.27-.16-.29.07-.71.17-1.4.32Z"/>
        <path class="cls-7" d="m420.06,768.84c-.01.08,0,.16-.03.25.89.71.64.34.03-.25Z"/>
        <path class="cls-7" d="m531.97,598.48s.05-.07.09-.1c-.05,0-.11,0-.16,0l.07.09Z"/>
        <path class="cls-7" d="m528.9,600.66c.88-2.06,1.77-2.19,3-2.26l-2.43-3.11-.57,5.38Z"/>
        <path class="cls-7" d="m420.76,679.97c.69-.54,1.38-1.07,2.12-1.57.38,3.4-1,4.88,1.39,3.67-.88-.52-1.1-1.3-.98-2.21.15-.9.65-1.92,1.15-2.94,1.01-2.04,2.16-4.01.51-5.26.51-.3,1.06-.58,1.59-.86-.28.35-.12.54-.4.89,1.67-.74,1.36-1.61.99-2.69-.39-1.08-.8-2.37.64-3.84,1.08-.96,2.12-1.39,1.95-.33.34-1.04.75-2.04,1.13-3.08.63-.67,1.04-.05.42.61.88-1.33,1.84-2.6,2.8-3.89l.07.11c-.05-.94.24-2.77.47-3.62,1.27-.52-.1.75.49.85l1.1-2.65c1.51-.08.75,2.26-.6,3.5,2.35.45,2.52-.11,2.79-1.09.25-.99.69-2.37,3.4-3.43l-1.39,2.14c1.39.24,2.26-.12,3.17-.66.9-.54,1.88-1.22,3.38-1.65-.49-.05-2.12.24-3.48.23-1.35,0-2.41-.31-1.73-1.69.81-.34,1.69-.97,2.27-2.65.98,1.04,1.87-.24,3.25-1.56l1.17,1.52c1.16-1.77.4-2.41.78-3.85,1.91-1.34,3.22-.49,4.42.14,3.05-2.06-3.5-.27-.3-3.27,2.87-1.35,4.11-3.25,6.46-6.38,2.17-.71.37,1.17,1.33,1.17l.7-2.36c.41-.24.55.23.62.47,1-1.42-.99-1.66.85-3.55-.3-1.07,1.25-1.17,3.02-1.46,1.76-.31,3.8-.71,4.51-2.59.95.04.3,1.2.9,1.7,2.89-3.64,2.6-2.91,4.63-6.6l3.31-.43c-2.68-.13-1.02-3.06.57-5.53-1.06-.23-1.96-.41-2.51-.43,1.03-.99,2.09-1.92,3.14-2.89.59.04.53.82.32,1.84.17-.27.33-.54.45-.76,1.64-.08,1.48,1.27,1.07,2.71-.62-.1-1.25-.22-1.86-.34-.34,1.5-.53,3.09.2,3.97.12-.33.48-.73.92-1.09-.08.4-.09.73.11.84.22.11.39-.46.74-1.21l1.83,1.44-.21-.85c1.76-.46,3.53-.88,5.3-1.28,1.18-1.83,2.16-3.82,3.51-5.77,1.33-1.98,3.03-3.9,5.61-5.59-.71,2.07.79,2.46,1.49,4.18-2.33-1.08-3.88,2.73-6.84,3.76,1.55-.53,1.62.42,1.39.88,1.39-1.36,2.8-2.7,4.24-4.02.53,1.43,1.56.53,3.13.48-2.27-2.28,2.95-3.53,4.66-5.3.53.87.45,2.03-2.17,2.94,3.69.81,2.19-4.84,5.73-4.26-.61.29-1.01.29-1.06.87,1.1-1.46,4.95-2.31,4.45-1.14l-.62.28c4.28-1.41,12.7-5.09,12.46-7.68.16.29.54,3.08.47,3.66,1.48-3.62,3.01-7.26,4.6-10.86.08,2.3,4.41,6.29,1.32,8.72,1.11-.07,2.48-.18,4.34-1.67-.79-.05-2.78-2.36-1.9-2.89,3.41,1.37,2.25.59,6.12,1.45-1.19-.09-1.16-3.73.53-4.2-.09.58,1.23,3.16.75,3.71.99-1.54,2.01-3.04,3.02-4.57-.84.92.72,2.77,1.94,3.37-.63-.49,3.55-1.12,4.55-1.77l-1.98-.19c4.8-.99,3.15-6.01,7.88-7.26-.36.84-.13,4.53,2.35,4.21.56-1.99,2.41-9.4,6.23-11.9l1.07.72,2.9-1.99c-.65,1.54-2,4.01-3.47,6.47-1.47,2.47-3.06,4.92-4.26,6.39,1.97.23.82.97,3.41.12,1.18.62-1.03,1.77-1.78,2.04l6.25-1.2c-.83-1.86,4.12-3.27,3.43-4.82l-6.07,3.9c-.84-1.86,2.26-6.61,6.73-7.49,1.33.47.12,3.68.4,4.31.38-.83,3.78-2.4,4.31-2.04l-1.56,1.54c2.62.08,3.26-3.67,6.68-2.56,1.04-.14,3.66,1.73,3.54.53-2.21-1.8-4.34-8.6-3.66-10.57.4.04,5.92.76,7.35,1.58,2.11,1.33-1.47,4.8.33,5.95-.07-.55.68-1.44,1.02-1.75,1.18.19-.03,1.77,2.22.95-.1-2.08,4.76-.97.68-1.94,2.13-1.12,2.51-.17,5.15-.9-1.16-1.09,1.36-4.94,3.53-6.04-.02.54.65,1.08.97,1.32,4.73-.9,7.44-.55,11.82-1.48.51.4,2.74.53,2.03,1.58.55-.49.99-1.29,2.32-1.63,2.97,1.17-2.95.91-.52,2.57-.08-1.21,3.15-2.34,4.92-3.46-.96-1.67-4.52.57-6.29,1.72-.54-2.48,2.27-5.79,6.65-7.88,3.54-1.37,1.91,1.28,2.48.8,6.96-.93,5.01-5.51,11.1-4.81,2.57,1.15.7,3.13,1.42,4.18-2.87,1.17-4.77-.14-6.78.32l2.63.27c-.85.7-2.76,1.5-3.93,1.25,2.17,1.02,11.66-1.96,17.21-1.6.85-.7,2.38-1.54,1.49-2.04l-1.64.52c-1.78-1,2.85-2.33.61-2.55,2.1-1.29,4.39-3.17,7.71-2.99l.91,1.71c-.16-.52-2.27-.73-3.07-.02,1.19-1.04,5.3,1.63,6.36-1l-2.45-.88c2.12-1.3,4.62-3.7,7.55-3.58-1.58-1.58-.62.31-2.98-1.46,2.18,2.31-7.28,1.11-4.01,3.38-2.48-2.08-3.75-.44-6.81-2.03.19.58,1.16.97-1.27,1.1-.08.19-.29.46-.43.62-.08,0-.1,0-.17-.02.05.02.09.03.14.05-.09.11-.09.13.05.02.61.16,1.13.4,1.37.7-.94,1.58-4.72,2.19-5.87,3.15-1.46-.03.46-.79-.42-1.29l-1.71,1.41c-.43-1.29-4.15-1.52-.97-2.9l-3,.49c-1.9-.41-4.38-.24-5.76.6-1.47-.02-3.27,2.16-2.25.88l-4.52,1.75-.11-.32c-4.66.76-9.03,4.12-14.8,2.88-1.48.66-2.99,1.43-5.66,1.63l-.76-1.02c-1.9.83-6.23.23-6.81,1.61-2.86-2.57-9.8,1.62-13.41,1.97l.24,1.51c-2.42.51-4.61,1.52-7.41,2.89l.52,1.25c-2.27,1.72-6.8.82-10.79,2.07.14-.57,1.19-.74,2-.63-2.81-.8-5.21.46-7.5,1.79-2.29,1.36-4.49,2.79-6.97,2.38-.94.8-1.77.88-2.62.79.1-.03.18-.09.25-.15-.12.02-.28.07-.45.12-.54-.07-1.12-.18-1.71-.22.55.17,1.06.3,1.48.3-.82.28-2.04.82-3.17,1.53l-.96-1.21c-.09.05-.18.07-.27.13-1.37-.12-.77.96.21,1.79-.55.42-1.03.88-1.37,1.35-1.69-1.9-2.99,1.77-5.1-.14-.45,1.43-5.9,2.92-5.71,5.57-.15-.3-.56-.33.09-.57-1.45.2-2.91.39-3.89,1.49l-1.19-1.53-2.13,3.39c-2.17-.41-3.15-.74-1.84-2.72-3.57,3.59-3.22,2.06-6.11,5.44l-.24-1.18c-1.3.52-2.79,2.83-3.92,2.22-.93-.24-2.3-.03-3.96.45-1.65.5-3.6,1.26-5.68,2.08-4.15,1.7-8.83,3.7-12.92,4.45,2.89,2.51-4.06.17-3.19,2.76-.78-.55-2-.48-1.13-1.69-3.35,2.54-6.18,1.54-7.67,4.9-.8-.52.23-1.48-.36-1.73-.22.31-.84,1.24-1.45,1-.6-.24.22-.89.64-1.52-3.73,2.06-2.88,4.55-2.03,6.8-2.4.01-3.28.65-3.85,2.77-1.02-.32-2.5-.42-.36-1.96-.67.31-2.76,1.17-4.59,2.17-1.82,1.02-3.35,2.21-2.92,3.06-.64-.18-1.84.93-2.05,1.32-2.84,1.67-3.21,1.63-5.82,3.57l.92-.23c.2,2.65-1.96,1.9-3.97,3.59l-.07-.24c-5.85,2.08-1.67,2.07-7.55,4.05l1.12.96c.71,1.42-.62,1.78-2.35,2.27-1.72.48-3.94.97-4.88,2.55l1.47-.15c-.74,2-6.74.09-8.46,1.14-.49.08.21-.77.53-1.31-5.01,2,.75,1.85-1.75,4.66-1.19-.27-1.09-2.53-3.08-.91-.73.15-1.56,1.99-2.57,3.99-.51,1-1.08,2.01-1.77,2.85-.68.84-1.44,1.54-2.4,1.85,1.1-.04,2.17-.05,1.43,1.63-.4.54-1.04,1.01-1.77,1.48-.72.49-1.53.97-2.28,1.5-1.53,1.03-2.79,2.31-2.56,4.03-.38.14-.62.11-.78,0-.19.5-.5,1.12-.83,1.8-.32.69-.67,1.44-.99,2.17-.32.74-.6,1.46-.78,2.11-.16.66-.22,1.25-.11,1.69-1.29-.31-2.26.3-3.03,1.33-.77,1.04-1.28,2.54-1.77,3.96-.92,2.88-1.52,5.57-3.57,4.5-.84,1.96-1.78,3.87-2.5,5.88l-.36-.34c-1.95,3.64-1.32,5.46-.8,7.14-.62.77-.79,0-.98-.16-2.75,5.34-2.74,6.12-1.64,11.41l-1.56.18c.14.38-.04,1.05-.39,1.96-.34.91-.78,2.06-1.24,3.37-.48,1.3-.84,2.77-1.07,4.29-.25,1.52-.21,3.09.11,4.57-.16-.07-.44-.21-.62-.69.58,3.35-.48,7.22-.98,10.7-.25,1.73-.3,3.33,0,4.63.32,1.29,1.09,2.26,2.48,2.73l.86,2.06.94,2.02c-.29-5.45,2.43.51,3.04-1.81.58,2.01-.89,5.62-1.52,3.09l.21-.44c-2.98-.56.05,6.83-1.78,7.03,2.18,10.59,4.08,21.11,7.88,30.54l1.57-1.91,1.26,3.26c-.11,1.05-1.08,1.83-1.99-.52-.31.85.35,1.73,1.14,2.36.81.62,1.74,1.01,1.97.94,1.23,4.83-3.13-.68-2.55.7l1.01,1.8.04-.53c1.5,1.14,2.43.86,3.64,3.6.44,1.9-.79,1.48-.53,2.19-.14.07-.09.32.47,1.05.62,1.34,1.22,2.7,1.88,4.02l.7-2.37c1.67,1.33,1.87,3.68,2.64.97-.64,2.02,1.08,5.76,3.09,9.15,1.98,3.41,4.23,6.49,4.32,7.51,2.52,1.62,3.96,3.86,5.69,6.68-.17-.88,1.17-2.37,2.57.1-3.91,1.43,1.52,5.28.56,8.83.17-1.4,1.46.18,2.75,1.57,1.31,1.38,2.6,2.58,2.72.47,1.16,2.1-1.12,1.02-.79,3.04,4.65,3.58,6.9,10.52,11.87,15.56.47-.26.33-1.67,1.9-1.04l.41,4.53c1.1.89,3.13-1.04,3.42,2.07.1-.56.25-1.4.99-.82,3.57,5.99,8.75,10.78,13.83,15.63,5.09,4.86,10.08,9.77,13.57,16.29-.7-2.04.3-1.25,1.39-.3-.52-.82.9-.94,1.25-1.6.98,1.8,1.97,3.6,2.99,5.39,2.1-.77,4.81,4.05,6.52,2.99l-1.63-.95c3.3-.1.67-6,2.87-7.92-3.73.11-2.73-7.5-8.41-7.83-.31-1.09,1.24-.11,1.32-.95-1.65.14-2.82-.6-4.24-2.74l.41-.02c-5.25-4.66-6.54-7.66-11.4-13.87l-.63,1.4c-1.03-1.36-.95-1.92-1.23-2.74-2.9.07,3.18,3.53.25,3.89.27-1.81-1.78-3.98-3.7-6.14-1.92-2.16-3.71-4.32-2.99-5.98-1.72-1.94-.72,1.67-2.44-.29l.21-1.11-1.29.27c-.99-1.4-.71-2.78-.18-3.33.2.37.93.75,1.27,1.03-.66-2.33-4.32-4.45-4.54-5.26l1.19,2.25c-5.24-4.84-9.73-12.27-15.23-16.66l-.23.82c-2.07-1.72-2.54-2.68-2.97-3.74-.44-1.06-.85-2.2-2.73-4.39l.25.08c-1.21-.55-2.36-1.63-3.18-2.97,1.46.75-.27-3.1,1.52-2.02-4.22-3.95-2.42-1.72-6.55-3.51l.47-1.33c-1.53-.54-2.06-.34-3.81-2.65,2.05,1.51.49-2.44,2.94-.86-.54-3.18-2.16-4.76-3.5-6.09-1.31-1.33-2.29-2.42-1.41-4.46-4.03-.92,1.04,5.35-.28,4.32-.23,1.63-3.13-.85-3.78-2.67-.86-1.75,1.88-4.74-.32-8.95.2.43.43.35.63.78-.11-1.93-2.5-2.67-2.3-5.19-2.2-.33-1.08-2.62-3.39-1.96.79,1.26,1.54,2.53,2.35,3.76-1.62-1.97-5.16-2.99-5.55-7.35.57.11,1.63,1,2.29,1.63.18-1.38-1.36-1.94-1.16-3.38,2.31-.58,2.54,4.72,5.33,6.36.37-1.56-3.63-3.85-.73-3.68-1.87-.21-2.24-1.34-2.58-2.64-.32-1.31-.58-2.79-2.35-3.84l1.41-.32c-.4-.39-1.38-1.14-1.67-2.02l2.31.93c-1.18-.92-1.29-2.21-1.3-3.51.02-1.3.13-2.6-.67-3.62,1.69,4.84-1.26,1.64-1.54,4.05-1.94-2.74-1.36-3.93-.6-5.21.75-1.3,1.56-2.68.33-5.96.44.85.12,3.68-.91,2.42-.07-1.38-.04-3.23.51-4.21-1.37-4.44-1.26,1.05-2.57-.68,1.31-1.95-1.24-2.07-2.19-4.02l1.42-.3c-.1-2.7-.84-2.92-1.62-3.08-.76-.16-1.51-.27-1.35-2.77.76.58,1.55,1.15,2.32,1.7-.3-.79-.64-1.59-.91-2.39l1.7.27c-1.55-2.49-1.4-3.4-1.16-6.06-.94.71-2.69-.1-2.88-2.5.77-1.67,1.42.82,1.04-2.52.95.73,2.12,1.46.87,2.99.47.12.95.67,1.44.78.41-.89.44-1.94.31-2.94-.13-.99-.36-1.92-.36-2.51-.04.46-.13,1-.31,1.29-.7-1.56-1.41-3.15-2.05-4.77.57-.75.98-.14,1.39.45-.13-.96-.77-1.65-.85-3.09,1.16.42,2.38.39,2.88,2.36-.38-1.49-.82-3-1.11-4.52.53-.27,1.57-2.17,1.96-1.56.42-1.19.08-2.7-.29-4.38-.29-1.65-.54-3.46.24-4.97-.19-.21-.33-.59-.35-1.31.23-.74.51-1.45.83-2.14.34-.69.68-1.36.96-2.07.54-1.43,1.02-2.91.8-4.91.86-.44,1.79-.84,2.68-1.23.26-1.39-.59-.99-1.42-.8-.82.19-1.6.16-1.13-2.25.68-3.43,2.15-.5,3.15-1.36-.15-.97-.48-2.37-.28-3.77.18-1.4.72-2.87,2.26-3.83-.16,1.09-.81,1.67-1.08,2.61Zm20.88-29.43c-.31.71-.63,2.39-1.6,2.15-.6-1.74.4-1.65,1.6-2.15Zm44.86-35.47c-.27.67-1.13.86-2.23.84.56-.44,1.28-.77,2.23-.84Zm152.86-58.41s-.05.05-.07.08c-1.76-.24-1.13-.13.07-.08Zm3.55-.03c.31-.26.25-.45.07-.63-.17.41-.94.57-1.84.63.31.33.8.5,1.77,0Zm-226.99,226.3l.02-.79c1.09,1.2.55.98-.02.79Z"/>
        <path class="cls-7" d="m481.65,619.92c-.3-.11-.48-.32-.66-.53-.13.36,0,.6.66.53Z"/>
        <path class="cls-7" d="m414.37,700.92s-.02.07-.04.1c.07.07.15.12.23.16l-.19-.26Z"/>
        <path class="cls-7" d="m592.99,579.93c-.74-.03-1.18-.19-1.51-.39.05.35.43.56,1.51.39Z"/>
        <path class="cls-7" d="m660.7,550.99l-2.14.74c1.06-.25,1.49,0,2.07.13-.1-.33-.61-.74.08-.88Z"/>
        <path class="cls-7" d="m681.22,556.79c.29-.22.68-.12.97-.35l-.19-.65c-1.36.25-2.24.93-.78,1Z"/>
        <path class="cls-7" d="m663.53,555.39c.37,1.17,1.68.54,3.19.06-.09.02-.18.04-.27.04.18-1.75-1.37-.94-2.92-.11Z"/>
        <path class="cls-7" d="m667.07,555.36c.47-.13.95-.24,1.42-.26.07-.7-.6-.05-1.42.26Z"/>
        <path class="cls-7" d="m647.12,555.04c.79.17.18-1.62.68-1.2.54-1.67-4.54,2.74-.68,1.2Z"/>
        <polygon class="cls-7" points="665.43 559.14 664.64 557.75 663.98 559.09 665.43 559.14"/>
        <path class="cls-7" d="m653.13,560.13l2.52-.02c-.08-.24.21-.44.57-.62-1.52.22-3.23.21-3.09.64Z"/>
        <path class="cls-7" d="m656.22,559.49c.79-.11,1.54-.27,1.93-.59-.42.09-1.33.29-1.93.59Z"/>
        <polygon class="cls-7" points="662.16 560.15 661.38 559.96 659.63 560.15 662.16 560.15"/>
        <path class="cls-7" d="m626.79,564.83l-2.57.97c-.17.56.62.72,1.57.31.56-.48,1.51-.88,1-1.29Z"/>
        <path class="cls-7" d="m635.63,567.26c-.78-.16-.89-.48-1.39-.89l.28,1.84,1.11-.96Z"/>
        <path class="cls-7" d="m627.98,569.23c-.16.56-3.54,2.25-.21,1.44.17-.56,2.73-1.53.21-1.44Z"/>
        <polygon class="cls-7" points="587.69 576 588.35 575.8 587.5 572.87 587.69 576"/>
        <path class="cls-7" d="m555.25,592.77c3.24-.25.16-2.02,3.17-2,.5-.91-2.47-.02-1.92-.84-1.61,1.28-2.69,1.2-1.25,2.84Z"/>
        <path class="cls-7" d="m556.5,589.92c.26-.2.53-.44.8-.73-.48.35-.68.56-.8.73Z"/>
        <polygon class="cls-7" points="495.38 883.33 496.58 885.2 496.21 883.53 495.38 883.33"/>
        <path class="cls-7" d="m499.95,884.26l-.86,1.82c.71-.17,1.41-.36,2.15-.51-.47-.27-1.28-.73-1.28-1.31Z"/>
        <path class="cls-7" d="m448.28,649.71l-.2-.45c-.56-.17-.94.09-1.66.65.61-.08,1.24-.14,1.86-.2Z"/>
        <polygon class="cls-7" points="429.82 667.92 430.12 667.58 428.19 667.23 429.82 667.92"/>
        <path class="cls-7" d="m421.53,687.41c.4-.74.43-1.81.84-2.56-.43,1.81-2.96,1.95-.84,2.56Z"/>
      </g>
    </g>
    <text class="cls-5" transform="translate(481.09 626.46) scale(1.15 1)"><tspan class="cls-9" x="0" y="0" xml:space="preserve">       </tspan><tspan class="cls-11" x="213.68" y="0">CB </tspan><tspan class="cls-12"><tspan class="cls-1" x="0" y="125.23">P</tspan><tspan class="cls-8" x="61.26" y="125.23">AL</tspan><tspan class="cls-10" x="213.18" y="125.23">A</tspan><tspan class="cls-13" x="293.65" y="125.23">U</tspan></tspan></text>
  </g>
</svg>